<svg width="146" height="146" viewBox="0 0 146 146" fill="none" xmlns="http://www.w3.org/2000/svg">
<path d="M146 0H0V146H146V0Z" fill="white" fill-opacity="0.9921"/>
<path d="M7 7H11V11H7V7ZM11 7H15V11H11V7ZM15 7H19V11H15V7ZM19 7H23V11H19V7ZM23 7H27V11H23V7ZM27 7H31V11H27V7ZM31 7H35V11H31V7ZM47 7H51V11H47V7ZM55 7H59V11H55V7ZM63 7H67V11H63V7ZM71 7H75V11H71V7ZM75 7H79V11H75V7ZM83 7H87V11H83V7ZM87 7H91V11H87V7ZM91 7H95V11H91V7ZM103 7H107V11H103V7ZM111 7H115V11H111V7ZM115 7H119V11H115V7ZM119 7H123V11H119V7ZM123 7H127V11H123V7ZM127 7H131V11H127V7ZM131 7H135V11H131V7ZM135 7H139V11H135V7ZM7 11H11V15H7V11ZM31 11H35V15H31V11ZM39 11H43V15H39V11ZM47 11H51V15H47V11ZM51 11H55V15H51V11ZM59 11H63V15H59V11ZM63 11H67V15H63V11ZM71 11H75V15H71V11ZM75 11H79V15H75V11ZM83 11H87V15H83V11ZM91 11H95V15H91V11ZM95 11H99V15H95V11ZM103 11H107V15H103V11ZM111 11H115V15H111V11ZM135 11H139V15H135V11ZM7 15H11V19H7V15ZM15 15H19V19H15V15ZM19 15H23V19H19V15ZM23 15H27V19H23V15ZM31 15H35V19H31V15ZM39 15H43V19H39V15ZM47 15H51V19H47V15ZM51 15H55V19H51V15ZM55 15H59V19H55V15ZM63 15H67V19H63V15ZM67 15H71V19H67V15ZM71 15H75V19H71V15ZM75 15H79V19H75V15ZM83 15H87V19H83V15ZM87 15H91V19H87V15ZM91 15H95V19H91V15ZM95 15H99V19H95V15ZM111 15H115V19H111V15ZM119 15H123V19H119V15ZM123 15H127V19H123V15ZM127 15H131V19H127V15ZM135 15H139V19H135V15ZM7 19H11V23H7V19ZM15 19H19V23H15V19ZM19 19H23V23H19V19ZM23 19H27V23H23V19ZM31 19H35V23H31V19ZM39 19H43V23H39V19ZM43 19H47V23H43V19ZM47 19H51V23H47V19ZM59 19H63V23H59V19ZM63 19H67V23H63V19ZM67 19H71V23H67V19ZM75 19H79V23H75V19ZM103 19H107V23H103V19ZM111 19H115V23H111V19ZM119 19H123V23H119V19ZM123 19H127V23H123V19ZM127 19H131V23H127V19ZM135 19H139V23H135V19ZM7 23H11V27H7V23ZM15 23H19V27H15V23ZM19 23H23V27H19V23ZM23 23H27V27H23V23ZM31 23H35V27H31V23ZM39 23H43V27H39V23ZM43 23H47V27H43V23ZM55 23H59V27H55V23ZM63 23H67V27H63V23ZM67 23H71V27H67V23ZM71 23H75V27H71V23ZM75 23H79V27H75V23ZM79 23H83V27H79V23ZM83 23H87V27H83V23ZM87 23H91V27H87V23ZM91 23H95V27H91V23ZM99 23H103V27H99V23ZM103 23H107V27H103V23ZM111 23H115V27H111V23ZM119 23H123V27H119V23ZM123 23H127V27H123V23ZM127 23H131V27H127V23ZM135 23H139V27H135V23ZM7 27H11V31H7V27ZM31 27H35V31H31V27ZM39 27H43V31H39V27ZM47 27H51V31H47V27ZM51 27H55V31H51V27ZM59 27H63V31H59V27ZM63 27H67V31H63V27ZM75 27H79V31H75V27ZM83 27H87V31H83V27ZM91 27H95V31H91V27ZM95 27H99V31H95V27ZM103 27H107V31H103V27ZM111 27H115V31H111V27ZM135 27H139V31H135V27ZM7 31H11V35H7V31ZM11 31H15V35H11V31ZM15 31H19V35H15V31ZM19 31H23V35H19V31ZM23 31H27V35H23V31ZM27 31H31V35H27V31ZM31 31H35V35H31V31ZM39 31H43V35H39V31ZM47 31H51V35H47V31ZM55 31H59V35H55V31ZM63 31H67V35H63V31ZM71 31H75V35H71V31ZM79 31H83V35H79V31ZM87 31H91V35H87V31ZM95 31H99V35H95V31ZM103 31H107V35H103V31ZM111 31H115V35H111V31ZM115 31H119V35H115V31ZM119 31H123V35H119V31ZM123 31H127V35H123V31ZM127 31H131V35H127V31ZM131 31H135V35H131V31ZM135 31H139V35H135V31ZM43 35H47V39H43V35ZM55 35H59V39H55V35ZM59 35H63V39H59V35ZM63 35H67V39H63V35ZM67 35H71V39H67V35ZM71 35H75V39H71V35ZM75 35H79V39H75V35ZM83 35H87V39H83V35ZM15 39H19V43H15V39ZM27 39H31V43H27V39ZM31 39H35V43H31V39ZM35 39H39V43H35V39ZM39 39H43V43H39V39ZM43 39H47V43H43V39ZM51 39H55V43H51V39ZM67 39H71V43H67V39ZM71 39H75V43H71V39ZM83 39H87V43H83V39ZM87 39H91V43H87V39ZM95 39H99V43H95V39ZM99 39H103V43H99V39ZM103 39H107V43H103V39ZM107 39H111V43H107V39ZM115 39H119V43H115V39ZM119 39H123V43H119V39ZM123 39H127V43H123V39ZM127 39H131V43H127V39ZM131 39H135V43H131V39ZM7 43H11V47H7V43ZM11 43H15V47H11V43ZM19 43H23V47H19V43ZM23 43H27V47H23V43ZM27 43H31V47H27V43ZM39 43H43V47H39V43ZM51 43H55V47H51V43ZM59 43H63V47H59V43ZM63 43H67V47H63V43ZM67 43H71V47H67V43ZM71 43H75V47H71V43ZM79 43H83V47H79V43ZM87 43H91V47H87V43ZM91 43H95V47H91V43ZM95 43H99V47H95V43ZM99 43H103V47H99V43ZM103 43H107V47H103V43ZM115 43H119V47H115V43ZM123 43H127V47H123V43ZM131 43H135V47H131V43ZM135 43H139V47H135V43ZM11 47H15V51H11V47ZM15 47H19V51H15V47ZM23 47H27V51H23V47ZM31 47H35V51H31V47ZM35 47H39V51H35V47ZM39 47H43V51H39V47ZM43 47H47V51H43V47ZM51 47H55V51H51V47ZM55 47H59V51H55V47ZM63 47H67V51H63V47ZM71 47H75V51H71V47ZM79 47H83V51H79V47ZM103 47H107V51H103V47ZM111 47H115V51H111V47ZM123 47H127V51H123V47ZM23 51H27V55H23V51ZM27 51H31V55H27V51ZM35 51H39V55H35V51ZM39 51H43V55H39V51ZM51 51H55V55H51V51ZM63 51H67V55H63V51ZM67 51H71V55H67V51ZM75 51H79V55H75V51ZM91 51H95V55H91V51ZM99 51H103V55H99V51ZM107 51H111V55H107V51ZM111 51H115V55H111V51ZM115 51H119V55H115V51ZM123 51H127V55H123V51ZM135 51H139V55H135V51ZM11 55H15V59H11V55ZM31 55H35V59H31V55ZM35 55H39V59H35V55ZM39 55H43V59H39V55ZM55 55H59V59H55V55ZM63 55H67V59H63V55ZM67 55H71V59H67V55ZM75 55H79V59H75V55ZM79 55H83V59H79V55ZM83 55H87V59H83V55ZM87 55H91V59H87V55ZM91 55H95V59H91V55ZM99 55H103V59H99V55ZM103 55H107V59H103V55ZM111 55H115V59H111V55ZM115 55H119V59H115V55ZM123 55H127V59H123V55ZM131 55H135V59H131V55ZM135 55H139V59H135V55ZM7 59H11V63H7V59ZM15 59H19V63H15V59ZM19 59H23V63H19V59ZM23 59H27V63H23V59ZM35 59H39V63H35V59ZM39 59H43V63H39V59ZM47 59H51V63H47V59ZM51 59H55V63H51V59ZM55 59H59V63H55V59ZM59 59H63V63H59V59ZM63 59H67V63H63V59ZM99 59H103V63H99V59ZM103 59H107V63H103V59ZM107 59H111V63H107V59ZM111 59H115V63H111V59ZM7 63H11V67H7V63ZM11 63H15V67H11V63ZM19 63H23V67H19V63ZM23 63H27V67H23V63ZM31 63H35V67H31V63ZM35 63H39V67H35V63ZM39 63H43V67H39V63ZM43 63H47V67H43V63ZM51 63H55V67H51V63ZM59 63H63V67H59V63ZM63 63H67V67H63V63ZM75 63H79V67H75V63ZM83 63H87V67H83V63ZM95 63H99V67H95V63ZM99 63H103V67H99V63ZM111 63H115V67H111V63ZM123 63H127V67H123V63ZM135 63H139V67H135V63ZM7 67H11V71H7V67ZM11 67H15V71H11V67ZM27 67H31V71H27V67ZM35 67H39V71H35V67ZM39 67H43V71H39V67ZM55 67H59V71H55V67ZM67 67H71V71H67V67ZM71 67H75V71H71V67ZM79 67H83V71H79V67ZM87 67H91V71H87V67ZM91 67H95V71H91V67ZM95 67H99V71H95V67ZM99 67H103V71H99V67ZM103 67H107V71H103V67ZM111 67H115V71H111V67ZM115 67H119V71H115V67ZM123 67H127V71H123V67ZM127 67H131V71H127V67ZM135 67H139V71H135V67ZM7 71H11V75H7V71ZM15 71H19V75H15V71ZM19 71H23V75H19V71ZM27 71H31V75H27V71ZM31 71H35V75H31V71ZM39 71H43V75H39V71ZM47 71H51V75H47V71ZM67 71H71V75H67V71ZM87 71H91V75H87V71ZM95 71H99V75H95V71ZM99 71H103V75H99V71ZM103 71H107V75H103V71ZM119 71H123V75H119V71ZM123 71H127V75H123V71ZM131 71H135V75H131V71ZM19 75H23V79H19V75ZM27 75H31V79H27V75ZM63 75H67V79H63V75ZM67 75H71V79H67V75ZM71 75H75V79H71V75ZM83 75H87V79H83V75ZM111 75H115V79H111V75ZM131 75H135V79H131V75ZM7 79H11V83H7V79ZM11 79H15V83H11V79ZM23 79H27V83H23V79ZM31 79H35V83H31V79ZM35 79H39V83H35V79ZM47 79H51V83H47V79ZM55 79H59V83H55V79ZM63 79H67V83H63V79ZM67 79H71V83H67V79ZM71 79H75V83H71V79ZM79 79H83V83H79V79ZM99 79H103V83H99V79ZM107 79H111V83H107V79ZM111 79H115V83H111V79ZM115 79H119V83H115V79ZM127 79H131V83H127V79ZM11 83H15V87H11V83ZM15 83H19V87H15V83ZM35 83H39V87H35V83ZM47 83H51V87H47V83ZM51 83H55V87H51V83ZM55 83H59V87H55V83ZM75 83H79V87H75V83ZM79 83H83V87H79V83ZM87 83H91V87H87V83ZM91 83H95V87H91V83ZM99 83H103V87H99V83ZM103 83H107V87H103V83ZM115 83H119V87H115V83ZM123 83H127V87H123V83ZM127 83H131V87H127V83ZM135 83H139V87H135V83ZM31 87H35V91H31V87ZM39 87H43V91H39V87ZM55 87H59V91H55V87ZM59 87H63V91H59V87ZM63 87H67V91H63V87ZM67 87H71V91H67V87ZM71 87H75V91H71V87ZM87 87H91V91H87V87ZM95 87H99V91H95V87ZM99 87H103V91H99V87ZM103 87H107V91H103V87ZM107 87H111V91H107V87ZM111 87H115V91H111V87ZM123 87H127V91H123V87ZM127 87H131V91H127V87ZM135 87H139V91H135V87ZM19 91H23V95H19V91ZM35 91H39V95H35V91ZM43 91H47V95H43V91ZM51 91H55V95H51V91ZM59 91H63V95H59V91ZM79 91H83V95H79V91ZM87 91H91V95H87V91ZM95 91H99V95H95V91ZM103 91H107V95H103V91ZM115 91H119V95H115V91ZM123 91H127V95H123V91ZM131 91H135V95H131V91ZM7 95H11V99H7V95ZM11 95H15V99H11V95ZM19 95H23V99H19V95ZM31 95H35V99H31V95ZM43 95H47V99H43V95ZM51 95H55V99H51V95ZM59 95H63V99H59V95ZM67 95H71V99H67V95ZM71 95H75V99H71V95ZM79 95H83V99H79V95ZM83 95H87V99H83V95ZM87 95H91V99H87V95ZM103 95H107V99H103V95ZM111 95H115V99H111V95ZM131 95H135V99H131V95ZM15 99H19V103H15V99ZM27 99H31V103H27V99ZM35 99H39V103H35V99ZM43 99H47V103H43V99ZM47 99H51V103H47V99ZM67 99H71V103H67V99ZM79 99H83V103H79V99ZM91 99H95V103H91V99ZM99 99H103V103H99V99ZM103 99H107V103H103V99ZM107 99H111V103H107V99ZM111 99H115V103H111V99ZM115 99H119V103H115V99ZM123 99H127V103H123V99ZM135 99H139V103H135V99ZM7 103H11V107H7V103ZM11 103H15V107H11V103ZM23 103H27V107H23V103ZM31 103H35V107H31V103ZM47 103H51V107H47V103ZM51 103H55V107H51V103ZM71 103H75V107H71V103ZM83 103H87V107H83V103ZM103 103H107V107H103V103ZM107 103H111V107H107V103ZM111 103H115V107H111V103ZM115 103H119V107H115V103ZM119 103H123V107H119V103ZM135 103H139V107H135V103ZM39 107H43V111H39V107ZM47 107H51V111H47V107ZM55 107H59V111H55V107ZM63 107H67V111H63V107ZM75 107H79V111H75V107ZM79 107H83V111H79V107ZM83 107H87V111H83V107ZM95 107H99V111H95V107ZM99 107H103V111H99V107ZM103 107H107V111H103V107ZM119 107H123V111H119V107ZM123 107H127V111H123V107ZM131 107H135V111H131V107ZM135 107H139V111H135V107ZM7 111H11V115H7V111ZM11 111H15V115H11V111ZM15 111H19V115H15V111ZM19 111H23V115H19V111ZM23 111H27V115H23V111ZM27 111H31V115H27V111ZM31 111H35V115H31V111ZM39 111H43V115H39V111ZM43 111H47V115H43V111ZM47 111H51V115H47V111ZM51 111H55V115H51V111ZM55 111H59V115H55V111ZM59 111H63V115H59V111ZM71 111H75V115H71V111ZM75 111H79V115H75V111ZM83 111H87V115H83V111ZM87 111H91V115H87V111ZM91 111H95V115H91V111ZM95 111H99V115H95V111ZM103 111H107V115H103V111ZM111 111H115V115H111V111ZM119 111H123V115H119V111ZM123 111H127V115H123V111ZM7 115H11V119H7V115ZM31 115H35V119H31V115ZM39 115H43V119H39V115ZM59 115H63V119H59V115ZM63 115H67V119H63V115ZM75 115H79V119H75V115ZM87 115H91V119H87V115ZM95 115H99V119H95V115ZM103 115H107V119H103V115ZM119 115H123V119H119V115ZM135 115H139V119H135V115ZM7 119H11V123H7V119ZM15 119H19V123H15V119ZM19 119H23V123H19V119ZM23 119H27V123H23V119ZM31 119H35V123H31V119ZM43 119H47V123H43V119ZM47 119H51V123H47V119ZM51 119H55V123H51V119ZM55 119H59V123H55V119ZM59 119H63V123H59V119ZM67 119H71V123H67V119ZM75 119H79V123H75V119ZM79 119H83V123H79V119ZM83 119H87V123H83V119ZM87 119H91V123H87V119ZM91 119H95V123H91V119ZM95 119H99V123H95V119ZM103 119H107V123H103V119ZM107 119H111V123H107V119ZM111 119H115V123H111V119ZM115 119H119V123H115V119ZM119 119H123V123H119V119ZM123 119H127V123H123V119ZM131 119H135V123H131V119ZM135 119H139V123H135V119ZM7 123H11V127H7V123ZM15 123H19V127H15V123ZM19 123H23V127H19V123ZM23 123H27V127H23V123ZM31 123H35V127H31V123ZM43 123H47V127H43V123ZM55 123H59V127H55V123ZM59 123H63V127H59V123ZM67 123H71V127H67V123ZM87 123H91V127H87V123ZM95 123H99V127H95V123ZM103 123H107V127H103V123ZM107 123H111V127H107V123ZM123 123H127V127H123V123ZM131 123H135V127H131V123ZM7 127H11V131H7V127ZM15 127H19V131H15V127ZM19 127H23V131H19V127ZM23 127H27V131H23V127ZM31 127H35V131H31V127ZM39 127H43V131H39V127ZM43 127H47V131H43V127ZM55 127H59V131H55V127ZM59 127H63V131H59V127ZM79 127H83V131H79V127ZM91 127H95V131H91V127ZM95 127H99V131H95V127ZM103 127H107V131H103V127ZM107 127H111V131H107V127ZM111 127H115V131H111V127ZM115 127H119V131H115V127ZM131 127H135V131H131V127ZM135 127H139V131H135V127ZM7 131H11V135H7V131ZM31 131H35V135H31V131ZM47 131H51V135H47V131ZM51 131H55V135H51V131ZM67 131H71V135H67V131ZM71 131H75V135H71V131ZM79 131H83V135H79V131ZM87 131H91V135H87V131ZM91 131H95V135H91V131ZM103 131H107V135H103V131ZM119 131H123V135H119V131ZM123 131H127V135H123V131ZM131 131H135V135H131V131ZM135 131H139V135H135V131ZM7 135H11V139H7V135ZM11 135H15V139H11V135ZM15 135H19V139H15V135ZM19 135H23V139H19V135ZM23 135H27V139H23V135ZM27 135H31V139H27V135ZM31 135H35V139H31V135ZM43 135H47V139H43V135ZM51 135H55V139H51V135ZM55 135H59V139H55V135ZM59 135H63V139H59V135ZM63 135H67V139H63V135ZM71 135H75V139H71V135ZM87 135H91V139H87V135ZM91 135H95V139H91V135ZM95 135H99V139H95V135ZM107 135H111V139H107V135ZM119 135H123V139H119V135ZM123 135H127V139H123V135ZM127 135H131V139H127V135ZM135 135H139V139H135V135Z" fill="#D2D2D2" fill-opacity="0.9921"/>
<path opacity="0.8" d="M115 43H31V103H115V43Z" fill="white"/>
<path d="M53.084 52.4688V61H51.9531V52.4688H53.084ZM58.2344 52.4688L54.6895 56.4473L52.6973 58.5156L52.5098 57.3086L54.0098 55.6562L56.875 52.4688H58.2344ZM57.1445 61L53.9863 56.8398L54.6602 55.9434L58.4922 61H57.1445ZM63.0625 59.916V56.6523C63.0625 56.4023 63.0117 56.1855 62.9102 56.002C62.8125 55.8145 62.6641 55.6699 62.4648 55.5684C62.2656 55.4668 62.0195 55.416 61.7266 55.416C61.4531 55.416 61.2129 55.4629 61.0059 55.5566C60.8027 55.6504 60.6426 55.7734 60.5254 55.9258C60.4121 56.0781 60.3555 56.2422 60.3555 56.418H59.2715C59.2715 56.1914 59.3301 55.9668 59.4473 55.7441C59.5645 55.5215 59.7324 55.3203 59.9512 55.1406C60.1738 54.957 60.4395 54.8125 60.748 54.707C61.0605 54.5977 61.4082 54.543 61.791 54.543C62.252 54.543 62.6582 54.6211 63.0098 54.7773C63.3652 54.9336 63.6426 55.1699 63.8418 55.4863C64.0449 55.7988 64.1465 56.1914 64.1465 56.6641V59.6172C64.1465 59.8281 64.1641 60.0527 64.1992 60.291C64.2383 60.5293 64.2949 60.7344 64.3691 60.9062V61H63.2383C63.1836 60.875 63.1406 60.709 63.1094 60.502C63.0781 60.291 63.0625 60.0957 63.0625 59.916ZM63.25 57.1562L63.2617 57.918H62.166C61.8574 57.918 61.582 57.9434 61.3398 57.9941C61.0977 58.041 60.8945 58.1133 60.7305 58.2109C60.5664 58.3086 60.4414 58.4316 60.3555 58.5801C60.2695 58.7246 60.2266 58.8945 60.2266 59.0898C60.2266 59.2891 60.2715 59.4707 60.3613 59.6348C60.4512 59.7988 60.5859 59.9297 60.7656 60.0273C60.9492 60.1211 61.1738 60.168 61.4395 60.168C61.7715 60.168 62.0645 60.0977 62.3184 59.957C62.5723 59.8164 62.7734 59.6445 62.9219 59.4414C63.0742 59.2383 63.1562 59.041 63.168 58.8496L63.6309 59.3711C63.6035 59.5352 63.5293 59.7168 63.4082 59.916C63.2871 60.1152 63.125 60.3066 62.9219 60.4902C62.7227 60.6699 62.4844 60.8203 62.207 60.9414C61.9336 61.0586 61.625 61.1172 61.2812 61.1172C60.8516 61.1172 60.4746 61.0332 60.1504 60.8652C59.8301 60.6973 59.5801 60.4727 59.4004 60.1914C59.2246 59.9062 59.1367 59.5879 59.1367 59.2363C59.1367 58.8965 59.2031 58.5977 59.3359 58.3398C59.4688 58.0781 59.6602 57.8613 59.9102 57.6895C60.1602 57.5137 60.4609 57.3809 60.8125 57.291C61.1641 57.2012 61.5566 57.1562 61.9902 57.1562H63.25ZM66.9355 55.6562V61H65.8516V54.6602H66.9062L66.9355 55.6562ZM68.916 54.625L68.9102 55.6328C68.8203 55.6133 68.7344 55.6016 68.6523 55.5977C68.5742 55.5898 68.4844 55.5859 68.3828 55.5859C68.1328 55.5859 67.9121 55.625 67.7207 55.7031C67.5293 55.7812 67.3672 55.8906 67.2344 56.0312C67.1016 56.1719 66.9961 56.3398 66.918 56.5352C66.8438 56.7266 66.7949 56.9375 66.7715 57.168L66.4668 57.3438C66.4668 56.9609 66.5039 56.6016 66.5781 56.2656C66.6562 55.9297 66.7754 55.6328 66.9355 55.375C67.0957 55.1133 67.2988 54.9102 67.5449 54.7656C67.7949 54.6172 68.0918 54.543 68.4355 54.543C68.5137 54.543 68.6035 54.5527 68.7051 54.5723C68.8066 54.5879 68.877 54.6055 68.916 54.625ZM72.4316 61.1172C71.9902 61.1172 71.5898 61.043 71.2305 60.8945C70.875 60.7422 70.5684 60.5293 70.3105 60.2559C70.0566 59.9824 69.8613 59.6582 69.7246 59.2832C69.5879 58.9082 69.5195 58.498 69.5195 58.0527V57.8066C69.5195 57.291 69.5957 56.832 69.748 56.4297C69.9004 56.0234 70.1074 55.6797 70.3691 55.3984C70.6309 55.1172 70.9277 54.9043 71.2598 54.7598C71.5918 54.6152 71.9355 54.543 72.291 54.543C72.7441 54.543 73.1348 54.6211 73.4629 54.7773C73.7949 54.9336 74.0664 55.1523 74.2773 55.4336C74.4883 55.7109 74.6445 56.0391 74.7461 56.418C74.8477 56.793 74.8984 57.2031 74.8984 57.6484V58.1348H70.1641V57.25H73.8145V57.168C73.7988 56.8867 73.7402 56.6133 73.6387 56.3477C73.541 56.082 73.3848 55.8633 73.1699 55.6914C72.9551 55.5195 72.6621 55.4336 72.291 55.4336C72.0449 55.4336 71.8184 55.4863 71.6113 55.5918C71.4043 55.6934 71.2266 55.8457 71.0781 56.0488C70.9297 56.252 70.8145 56.5 70.7324 56.793C70.6504 57.0859 70.6094 57.4238 70.6094 57.8066V58.0527C70.6094 58.3535 70.6504 58.6367 70.7324 58.9023C70.8184 59.1641 70.9414 59.3945 71.1016 59.5938C71.2656 59.793 71.4629 59.9492 71.6934 60.0625C71.9277 60.1758 72.1934 60.2324 72.4902 60.2324C72.873 60.2324 73.1973 60.1543 73.4629 59.998C73.7285 59.8418 73.9609 59.6328 74.1602 59.3711L74.8164 59.8926C74.6797 60.0996 74.5059 60.2969 74.2949 60.4844C74.084 60.6719 73.8242 60.8242 73.5156 60.9414C73.2109 61.0586 72.8496 61.1172 72.4316 61.1172ZM77.2539 52V61H76.1641V52H77.2539ZM81.127 54.6602L78.3613 57.6191L76.8145 59.2246L76.7266 58.0703L77.834 56.7461L79.8027 54.6602H81.127ZM80.1367 61L77.875 57.9766L78.4375 57.0098L81.4141 61H80.1367ZM81.959 57.9004V57.7656C81.959 57.3086 82.0254 56.8848 82.1582 56.4941C82.291 56.0996 82.4824 55.7578 82.7324 55.4688C82.9824 55.1758 83.2852 54.9492 83.6406 54.7891C83.9961 54.625 84.3945 54.543 84.8359 54.543C85.2812 54.543 85.6816 54.625 86.0371 54.7891C86.3965 54.9492 86.7012 55.1758 86.9512 55.4688C87.2051 55.7578 87.3984 56.0996 87.5312 56.4941C87.6641 56.8848 87.7305 57.3086 87.7305 57.7656V57.9004C87.7305 58.3574 87.6641 58.7812 87.5312 59.1719C87.3984 59.5625 87.2051 59.9043 86.9512 60.1973C86.7012 60.4863 86.3984 60.7129 86.043 60.877C85.6914 61.0371 85.293 61.1172 84.8477 61.1172C84.4023 61.1172 84.002 61.0371 83.6465 60.877C83.291 60.7129 82.9863 60.4863 82.7324 60.1973C82.4824 59.9043 82.291 59.5625 82.1582 59.1719C82.0254 58.7812 81.959 58.3574 81.959 57.9004ZM83.043 57.7656V57.9004C83.043 58.2168 83.0801 58.5156 83.1543 58.7969C83.2285 59.0742 83.3398 59.3203 83.4883 59.5352C83.6406 59.75 83.8301 59.9199 84.0566 60.0449C84.2832 60.166 84.5469 60.2266 84.8477 60.2266C85.1445 60.2266 85.4043 60.166 85.627 60.0449C85.8535 59.9199 86.041 59.75 86.1895 59.5352C86.3379 59.3203 86.4492 59.0742 86.5234 58.7969C86.6016 58.5156 86.6406 58.2168 86.6406 57.9004V57.7656C86.6406 57.4531 86.6016 57.1582 86.5234 56.8809C86.4492 56.5996 86.3359 56.3516 86.1836 56.1367C86.0352 55.918 85.8477 55.7461 85.6211 55.6211C85.3984 55.4961 85.1367 55.4336 84.8359 55.4336C84.5391 55.4336 84.2773 55.4961 84.0508 55.6211C83.8281 55.7461 83.6406 55.918 83.4883 56.1367C83.3398 56.3516 83.2285 56.5996 83.1543 56.8809C83.0801 57.1582 83.043 57.4531 83.043 57.7656ZM93.0859 59.7695V52H94.1758V61H93.1797L93.0859 59.7695ZM88.8203 57.9004V57.7773C88.8203 57.293 88.8789 56.8535 88.9961 56.459C89.1172 56.0605 89.2871 55.7188 89.5059 55.4336C89.7285 55.1484 89.9922 54.9297 90.2969 54.7773C90.6055 54.6211 90.9492 54.543 91.3281 54.543C91.7266 54.543 92.0742 54.6133 92.3711 54.7539C92.6719 54.8906 92.9258 55.0918 93.1328 55.3574C93.3438 55.6191 93.5098 55.9355 93.6309 56.3066C93.752 56.6777 93.8359 57.0977 93.8828 57.5664V58.1055C93.8398 58.5703 93.7559 58.9883 93.6309 59.3594C93.5098 59.7305 93.3438 60.0469 93.1328 60.3086C92.9258 60.5703 92.6719 60.7715 92.3711 60.9121C92.0703 61.0488 91.7188 61.1172 91.3164 61.1172C90.9453 61.1172 90.6055 61.0371 90.2969 60.877C89.9922 60.7168 89.7285 60.4922 89.5059 60.2031C89.2871 59.9141 89.1172 59.5742 88.9961 59.1836C88.8789 58.7891 88.8203 58.3613 88.8203 57.9004ZM89.9102 57.7773V57.9004C89.9102 58.2168 89.9414 58.5137 90.0039 58.791C90.0703 59.0684 90.1719 59.3125 90.3086 59.5234C90.4453 59.7344 90.6191 59.9004 90.8301 60.0215C91.041 60.1387 91.293 60.1973 91.5859 60.1973C91.9453 60.1973 92.2402 60.1211 92.4707 59.9688C92.7051 59.8164 92.8926 59.6152 93.0332 59.3652C93.1738 59.1152 93.2832 58.8438 93.3613 58.5508V57.1387C93.3145 56.9238 93.2461 56.7168 93.1562 56.5176C93.0703 56.3145 92.957 56.1348 92.8164 55.9785C92.6797 55.8184 92.5098 55.6914 92.3066 55.5977C92.1074 55.5039 91.8711 55.457 91.5977 55.457C91.3008 55.457 91.0449 55.5195 90.8301 55.6445C90.6191 55.7656 90.4453 55.9336 90.3086 56.1484C90.1719 56.3594 90.0703 56.6055 90.0039 56.8867C89.9414 57.1641 89.9102 57.4609 89.9102 57.7773ZM44.9277 74.5352V69.6602H46.0176V76H44.9805L44.9277 74.5352ZM45.1328 73.1992L45.584 73.1875C45.584 73.6094 45.5391 74 45.4492 74.3594C45.3633 74.7148 45.2227 75.0234 45.0273 75.2852C44.832 75.5469 44.5762 75.752 44.2598 75.9004C43.9434 76.0449 43.5586 76.1172 43.1055 76.1172C42.7969 76.1172 42.5137 76.0723 42.2559 75.9824C42.002 75.8926 41.7832 75.7539 41.5996 75.5664C41.416 75.3789 41.2734 75.1348 41.1719 74.834C41.0742 74.5332 41.0254 74.1719 41.0254 73.75V69.6602H42.1094V73.7617C42.1094 74.0469 42.1406 74.2832 42.2031 74.4707C42.2695 74.6543 42.3574 74.8008 42.4668 74.9102C42.5801 75.0156 42.7051 75.0898 42.8418 75.1328C42.9824 75.1758 43.127 75.1973 43.2754 75.1973C43.7363 75.1973 44.1016 75.1094 44.3711 74.9336C44.6406 74.7539 44.834 74.5137 44.9512 74.2129C45.0723 73.9082 45.1328 73.5703 45.1328 73.1992ZM41.6582 67.9668C41.6582 67.791 41.7129 67.6426 41.8223 67.5215C41.9316 67.4004 42.0898 67.3398 42.2969 67.3398C42.5078 67.3398 42.668 67.4004 42.7773 67.5215C42.8867 67.6426 42.9414 67.791 42.9414 67.9668C42.9414 68.1348 42.8867 68.2793 42.7773 68.4004C42.668 68.5176 42.5078 68.5762 42.2969 68.5762C42.0898 68.5762 41.9316 68.5176 41.8223 68.4004C41.7129 68.2793 41.6582 68.1348 41.6582 67.9668ZM44.1836 67.9785C44.1836 67.8027 44.2363 67.6543 44.3418 67.5332C44.4512 67.4121 44.6113 67.3516 44.8223 67.3516C45.0293 67.3516 45.1875 67.4121 45.2969 67.5332C45.4102 67.6543 45.4668 67.8027 45.4668 67.9785C45.4668 68.1465 45.4102 68.291 45.2969 68.4121C45.1875 68.5293 45.0293 68.5879 44.8223 68.5879C44.6113 68.5879 44.4512 68.5293 44.3418 68.4121C44.2363 68.291 44.1836 68.1465 44.1836 67.9785ZM48.7539 70.6562V76H47.6699V69.6602H48.7246L48.7539 70.6562ZM50.7344 69.625L50.7285 70.6328C50.6387 70.6133 50.5527 70.6016 50.4707 70.5977C50.3926 70.5898 50.3027 70.5859 50.2012 70.5859C49.9512 70.5859 49.7305 70.625 49.5391 70.7031C49.3477 70.7812 49.1855 70.8906 49.0527 71.0312C48.9199 71.1719 48.8145 71.3398 48.7363 71.5352C48.6621 71.7266 48.6133 71.9375 48.5898 72.168L48.2852 72.3438C48.2852 71.9609 48.3223 71.6016 48.3965 71.2656C48.4746 70.9297 48.5938 70.6328 48.7539 70.375C48.9141 70.1133 49.1172 69.9102 49.3633 69.7656C49.6133 69.6172 49.9102 69.543 50.2539 69.543C50.332 69.543 50.4219 69.5527 50.5234 69.5723C50.625 69.5879 50.6953 69.6055 50.7344 69.625ZM54.25 76.1172C53.8086 76.1172 53.4082 76.043 53.0488 75.8945C52.6934 75.7422 52.3867 75.5293 52.1289 75.2559C51.875 74.9824 51.6797 74.6582 51.543 74.2832C51.4062 73.9082 51.3379 73.498 51.3379 73.0527V72.8066C51.3379 72.291 51.4141 71.832 51.5664 71.4297C51.7188 71.0234 51.9258 70.6797 52.1875 70.3984C52.4492 70.1172 52.7461 69.9043 53.0781 69.7598C53.4102 69.6152 53.7539 69.543 54.1094 69.543C54.5625 69.543 54.9531 69.6211 55.2812 69.7773C55.6133 69.9336 55.8848 70.1523 56.0957 70.4336C56.3066 70.7109 56.4629 71.0391 56.5645 71.418C56.666 71.793 56.7168 72.2031 56.7168 72.6484V73.1348H51.9824V72.25H55.6328V72.168C55.6172 71.8867 55.5586 71.6133 55.457 71.3477C55.3594 71.082 55.2031 70.8633 54.9883 70.6914C54.7734 70.5195 54.4805 70.4336 54.1094 70.4336C53.8633 70.4336 53.6367 70.4863 53.4297 70.5918C53.2227 70.6934 53.0449 70.8457 52.8965 71.0488C52.748 71.252 52.6328 71.5 52.5508 71.793C52.4688 72.0859 52.4277 72.4238 52.4277 72.8066V73.0527C52.4277 73.3535 52.4688 73.6367 52.5508 73.9023C52.6367 74.1641 52.7598 74.3945 52.9199 74.5938C53.084 74.793 53.2812 74.9492 53.5117 75.0625C53.7461 75.1758 54.0117 75.2324 54.3086 75.2324C54.6914 75.2324 55.0156 75.1543 55.2812 74.998C55.5469 74.8418 55.7793 74.6328 55.9785 74.3711L56.6348 74.8926C56.498 75.0996 56.3242 75.2969 56.1133 75.4844C55.9023 75.6719 55.6426 75.8242 55.334 75.9414C55.0293 76.0586 54.668 76.1172 54.25 76.1172ZM60.6367 69.6602V70.4922H57.209V69.6602H60.6367ZM58.3691 68.1191H59.4531V74.4297C59.4531 74.6445 59.4863 74.8066 59.5527 74.916C59.6191 75.0254 59.7051 75.0977 59.8105 75.1328C59.916 75.168 60.0293 75.1855 60.1504 75.1855C60.2402 75.1855 60.334 75.1777 60.4316 75.1621C60.5332 75.1426 60.6094 75.127 60.6602 75.1152L60.666 76C60.5801 76.0273 60.4668 76.0527 60.3262 76.0762C60.1895 76.1035 60.0234 76.1172 59.8281 76.1172C59.5625 76.1172 59.3184 76.0645 59.0957 75.959C58.873 75.8535 58.6953 75.6777 58.5625 75.4316C58.4336 75.1816 58.3691 74.8457 58.3691 74.4238V68.1191ZM62.9863 70.9199V76H61.8965V69.6602H62.9277L62.9863 70.9199ZM62.7637 72.5898L62.2598 72.5723C62.2637 72.1387 62.3203 71.7383 62.4297 71.3711C62.5391 71 62.7012 70.6777 62.916 70.4043C63.1309 70.1309 63.3984 69.9199 63.7188 69.7715C64.0391 69.6191 64.4102 69.543 64.832 69.543C65.1289 69.543 65.4023 69.5859 65.6523 69.6719C65.9023 69.7539 66.1191 69.8848 66.3027 70.0645C66.4863 70.2441 66.6289 70.4746 66.7305 70.7559C66.832 71.0371 66.8828 71.377 66.8828 71.7754V76H65.7988V71.8281C65.7988 71.4961 65.7422 71.2305 65.6289 71.0312C65.5195 70.832 65.3633 70.6875 65.1602 70.5977C64.957 70.5039 64.7188 70.457 64.4453 70.457C64.125 70.457 63.8574 70.5137 63.6426 70.627C63.4277 70.7402 63.2559 70.8965 63.127 71.0957C62.998 71.2949 62.9043 71.5234 62.8457 71.7812C62.791 72.0352 62.7637 72.3047 62.7637 72.5898ZM66.8711 71.9922L66.1445 72.2148C66.1484 71.8672 66.2051 71.5332 66.3145 71.2129C66.4277 70.8926 66.5898 70.6074 66.8008 70.3574C67.0156 70.1074 67.2793 69.9102 67.5918 69.7656C67.9043 69.6172 68.2617 69.543 68.6641 69.543C69.0039 69.543 69.3047 69.5879 69.5664 69.6777C69.832 69.7676 70.0547 69.9062 70.2344 70.0938C70.418 70.2773 70.5566 70.5137 70.6504 70.8027C70.7441 71.0918 70.791 71.4355 70.791 71.834V76H69.7012V71.8223C69.7012 71.4668 69.6445 71.1914 69.5312 70.9961C69.4219 70.7969 69.2656 70.6582 69.0625 70.5801C68.8633 70.498 68.625 70.457 68.3477 70.457C68.1094 70.457 67.8984 70.498 67.7148 70.5801C67.5312 70.6621 67.377 70.7754 67.252 70.9199C67.127 71.0605 67.0312 71.2227 66.9648 71.4062C66.9023 71.5898 66.8711 71.7852 66.8711 71.9922ZM75.0625 76.1172C74.6211 76.1172 74.2207 76.043 73.8613 75.8945C73.5059 75.7422 73.1992 75.5293 72.9414 75.2559C72.6875 74.9824 72.4922 74.6582 72.3555 74.2832C72.2188 73.9082 72.1504 73.498 72.1504 73.0527V72.8066C72.1504 72.291 72.2266 71.832 72.3789 71.4297C72.5312 71.0234 72.7383 70.6797 73 70.3984C73.2617 70.1172 73.5586 69.9043 73.8906 69.7598C74.2227 69.6152 74.5664 69.543 74.9219 69.543C75.375 69.543 75.7656 69.6211 76.0938 69.7773C76.4258 69.9336 76.6973 70.1523 76.9082 70.4336C77.1191 70.7109 77.2754 71.0391 77.377 71.418C77.4785 71.793 77.5293 72.2031 77.5293 72.6484V73.1348H72.7949V72.25H76.4453V72.168C76.4297 71.8867 76.3711 71.6133 76.2695 71.3477C76.1719 71.082 76.0156 70.8633 75.8008 70.6914C75.5859 70.5195 75.293 70.4336 74.9219 70.4336C74.6758 70.4336 74.4492 70.4863 74.2422 70.5918C74.0352 70.6934 73.8574 70.8457 73.709 71.0488C73.5605 71.252 73.4453 71.5 73.3633 71.793C73.2812 72.0859 73.2402 72.4238 73.2402 72.8066V73.0527C73.2402 73.3535 73.2812 73.6367 73.3633 73.9023C73.4492 74.1641 73.5723 74.3945 73.7324 74.5938C73.8965 74.793 74.0938 74.9492 74.3242 75.0625C74.5586 75.1758 74.8242 75.2324 75.1211 75.2324C75.5039 75.2324 75.8281 75.1543 76.0938 74.998C76.3594 74.8418 76.5918 74.6328 76.791 74.3711L77.4473 74.8926C77.3105 75.0996 77.1367 75.2969 76.9258 75.4844C76.7148 75.6719 76.4551 75.8242 76.1465 75.9414C75.8418 76.0586 75.4805 76.1172 75.0625 76.1172ZM79.8848 67V76H78.7949V67H79.8848ZM83.7578 69.6602L80.9922 72.6191L79.4453 74.2246L79.3574 73.0703L80.4648 71.7461L82.4336 69.6602H83.7578ZM82.7676 76L80.5059 72.9766L81.0684 72.0098L84.0449 76H82.7676ZM89.0312 69.6602V76H87.9414V69.6602H89.0312ZM87.8594 67.9785C87.8594 67.8027 87.9121 67.6543 88.0176 67.5332C88.127 67.4121 88.2871 67.3516 88.498 67.3516C88.7051 67.3516 88.8633 67.4121 88.9727 67.5332C89.0859 67.6543 89.1426 67.8027 89.1426 67.9785C89.1426 68.1465 89.0859 68.291 88.9727 68.4121C88.8633 68.5293 88.7051 68.5879 88.498 68.5879C88.2871 68.5879 88.127 68.5293 88.0176 68.4121C87.9121 68.291 87.8594 68.1465 87.8594 67.9785ZM93.3086 75.2266C93.5664 75.2266 93.8047 75.1738 94.0234 75.0684C94.2422 74.9629 94.4219 74.8184 94.5625 74.6348C94.7031 74.4473 94.7832 74.2344 94.8027 73.9961H95.834C95.8145 74.3711 95.6875 74.7207 95.4531 75.0449C95.2227 75.3652 94.9199 75.625 94.5449 75.8242C94.1699 76.0195 93.7578 76.1172 93.3086 76.1172C92.832 76.1172 92.416 76.0332 92.0605 75.8652C91.709 75.6973 91.416 75.4668 91.1816 75.1738C90.9512 74.8809 90.7773 74.5449 90.6602 74.166C90.5469 73.7832 90.4902 73.3789 90.4902 72.9531V72.707C90.4902 72.2812 90.5469 71.8789 90.6602 71.5C90.7773 71.1172 90.9512 70.7793 91.1816 70.4863C91.416 70.1934 91.709 69.9629 92.0605 69.7949C92.416 69.627 92.832 69.543 93.3086 69.543C93.8047 69.543 94.2383 69.6445 94.6094 69.8477C94.9805 70.0469 95.2715 70.3203 95.4824 70.668C95.6973 71.0117 95.8145 71.4023 95.834 71.8398H94.8027C94.7832 71.5781 94.709 71.3418 94.5801 71.1309C94.4551 70.9199 94.2832 70.752 94.0645 70.627C93.8496 70.498 93.5977 70.4336 93.3086 70.4336C92.9766 70.4336 92.6973 70.5 92.4707 70.6328C92.248 70.7617 92.0703 70.9375 91.9375 71.1602C91.8086 71.3789 91.7148 71.623 91.6562 71.8926C91.6016 72.1582 91.5742 72.4297 91.5742 72.707V72.9531C91.5742 73.2305 91.6016 73.5039 91.6562 73.7734C91.7109 74.043 91.8027 74.2871 91.9316 74.5059C92.0645 74.7246 92.2422 74.9004 92.4648 75.0332C92.6914 75.1621 92.9727 75.2266 93.3086 75.2266ZM92.7109 76.0586H93.4902L93.4199 76.3691C93.6465 76.4082 93.8516 76.502 94.0352 76.6504C94.2227 76.7988 94.3164 77.043 94.3164 77.3828C94.3164 77.5664 94.2773 77.7324 94.1992 77.8809C94.125 78.0332 94.0137 78.1621 93.8652 78.2676C93.7168 78.377 93.5312 78.4609 93.3086 78.5195C93.0898 78.5781 92.834 78.6074 92.541 78.6074L92.5 77.9805C92.6797 77.9805 92.8418 77.9609 92.9863 77.9219C93.1348 77.8828 93.252 77.8203 93.3379 77.7344C93.4277 77.6484 93.4727 77.5371 93.4727 77.4004C93.4727 77.2715 93.4395 77.1699 93.373 77.0957C93.3066 77.0215 93.2031 76.9648 93.0625 76.9258C92.9258 76.8906 92.748 76.8652 92.5293 76.8496L92.7109 76.0586ZM98.2305 69.6602V76H97.1406V69.6602H98.2305ZM97.0586 67.9785C97.0586 67.8027 97.1113 67.6543 97.2168 67.5332C97.3262 67.4121 97.4863 67.3516 97.6973 67.3516C97.9043 67.3516 98.0625 67.4121 98.1719 67.5332C98.2852 67.6543 98.3418 67.8027 98.3418 67.9785C98.3418 68.1465 98.2852 68.291 98.1719 68.4121C98.0625 68.5293 97.9043 68.5879 97.6973 68.5879C97.4863 68.5879 97.3262 68.5293 97.2168 68.4121C97.1113 68.291 97.0586 68.1465 97.0586 67.9785ZM101.055 71.0137V76H99.9707V69.6602H100.996L101.055 71.0137ZM100.797 72.5898L100.346 72.5723C100.35 72.1387 100.414 71.7383 100.539 71.3711C100.664 71 100.84 70.6777 101.066 70.4043C101.293 70.1309 101.562 69.9199 101.875 69.7715C102.191 69.6191 102.541 69.543 102.924 69.543C103.236 69.543 103.518 69.5859 103.768 69.6719C104.018 69.7539 104.23 69.8867 104.406 70.0703C104.586 70.2539 104.723 70.4922 104.816 70.7852C104.91 71.0742 104.957 71.4277 104.957 71.8457V76H103.867V71.834C103.867 71.502 103.818 71.2363 103.721 71.0371C103.623 70.834 103.48 70.6875 103.293 70.5977C103.105 70.5039 102.875 70.457 102.602 70.457C102.332 70.457 102.086 70.5137 101.863 70.627C101.645 70.7402 101.455 70.8965 101.295 71.0957C101.139 71.2949 101.016 71.5234 100.926 71.7812C100.84 72.0352 100.797 72.3047 100.797 72.5898ZM53.2012 84.6602V85.4922H49.7734V84.6602H53.2012ZM50.9336 83.1191H52.0176V89.4297C52.0176 89.6445 52.0508 89.8066 52.1172 89.916C52.1836 90.0254 52.2695 90.0977 52.375 90.1328C52.4805 90.168 52.5938 90.1855 52.7148 90.1855C52.8047 90.1855 52.8984 90.1777 52.9961 90.1621C53.0977 90.1426 53.1738 90.127 53.2246 90.1152L53.2305 91C53.1445 91.0273 53.0312 91.0527 52.8906 91.0762C52.7539 91.1035 52.5879 91.1172 52.3926 91.1172C52.127 91.1172 51.8828 91.0645 51.6602 90.959C51.4375 90.8535 51.2598 90.6777 51.127 90.4316C50.998 90.1816 50.9336 89.8457 50.9336 89.4238V83.1191ZM55.6445 84.6602V91H54.5605V84.6602H55.6445ZM58.5391 82V91H57.4492V82H58.5391ZM62.4121 84.6602L59.6465 87.6191L58.0996 89.2246L58.0117 88.0703L59.1191 86.7461L61.0879 84.6602H62.4121ZM61.4219 91L59.1602 87.9766L59.7227 87.0098L62.6992 91H61.4219ZM64.709 82V91H63.6191V82H64.709ZM70.1875 89.916V86.6523C70.1875 86.4023 70.1367 86.1855 70.0352 86.002C69.9375 85.8145 69.7891 85.6699 69.5898 85.5684C69.3906 85.4668 69.1445 85.416 68.8516 85.416C68.5781 85.416 68.3379 85.4629 68.1309 85.5566C67.9277 85.6504 67.7676 85.7734 67.6504 85.9258C67.5371 86.0781 67.4805 86.2422 67.4805 86.418H66.3965C66.3965 86.1914 66.4551 85.9668 66.5723 85.7441C66.6895 85.5215 66.8574 85.3203 67.0762 85.1406C67.2988 84.957 67.5645 84.8125 67.873 84.707C68.1855 84.5977 68.5332 84.543 68.916 84.543C69.377 84.543 69.7832 84.6211 70.1348 84.7773C70.4902 84.9336 70.7676 85.1699 70.9668 85.4863C71.1699 85.7988 71.2715 86.1914 71.2715 86.6641V89.6172C71.2715 89.8281 71.2891 90.0527 71.3242 90.291C71.3633 90.5293 71.4199 90.7344 71.4941 90.9062V91H70.3633C70.3086 90.875 70.2656 90.709 70.2344 90.502C70.2031 90.291 70.1875 90.0957 70.1875 89.916ZM70.375 87.1562L70.3867 87.918H69.291C68.9824 87.918 68.707 87.9434 68.4648 87.9941C68.2227 88.041 68.0195 88.1133 67.8555 88.2109C67.6914 88.3086 67.5664 88.4316 67.4805 88.5801C67.3945 88.7246 67.3516 88.8945 67.3516 89.0898C67.3516 89.2891 67.3965 89.4707 67.4863 89.6348C67.5762 89.7988 67.7109 89.9297 67.8906 90.0273C68.0742 90.1211 68.2988 90.168 68.5645 90.168C68.8965 90.168 69.1895 90.0977 69.4434 89.957C69.6973 89.8164 69.8984 89.6445 70.0469 89.4414C70.1992 89.2383 70.2812 89.041 70.293 88.8496L70.7559 89.3711C70.7285 89.5352 70.6543 89.7168 70.5332 89.916C70.4121 90.1152 70.25 90.3066 70.0469 90.4902C69.8477 90.6699 69.6094 90.8203 69.332 90.9414C69.0586 91.0586 68.75 91.1172 68.4062 91.1172C67.9766 91.1172 67.5996 91.0332 67.2754 90.8652C66.9551 90.6973 66.7051 90.4727 66.5254 90.1914C66.3496 89.9062 66.2617 89.5879 66.2617 89.2363C66.2617 88.8965 66.3281 88.5977 66.4609 88.3398C66.5938 88.0781 66.7852 87.8613 67.0352 87.6895C67.2852 87.5137 67.5859 87.3809 67.9375 87.291C68.2891 87.2012 68.6816 87.1562 69.1152 87.1562H70.375ZM74.6641 90.3438L76.4277 84.6602H77.5879L75.0449 91.9785C74.9863 92.1348 74.9082 92.3027 74.8105 92.4824C74.7168 92.666 74.5957 92.8398 74.4473 93.0039C74.2988 93.168 74.1191 93.3008 73.9082 93.4023C73.7012 93.5078 73.4531 93.5605 73.1641 93.5605C73.0781 93.5605 72.9688 93.5488 72.8359 93.5254C72.7031 93.502 72.6094 93.4824 72.5547 93.4668L72.5488 92.5879C72.5801 92.5918 72.6289 92.5957 72.6953 92.5996C72.7656 92.6074 72.8145 92.6113 72.8418 92.6113C73.0879 92.6113 73.2969 92.5781 73.4688 92.5117C73.6406 92.4492 73.7852 92.3418 73.9023 92.1895C74.0234 92.041 74.127 91.8359 74.2129 91.5742L74.6641 90.3438ZM73.3691 84.6602L75.0156 89.582L75.2969 90.7246L74.5176 91.123L72.1855 84.6602H73.3691ZM79.7383 84.6602V91H78.6543V84.6602H79.7383ZM82.627 86.0137V91H81.543V84.6602H82.5684L82.627 86.0137ZM82.3691 87.5898L81.918 87.5723C81.9219 87.1387 81.9863 86.7383 82.1113 86.3711C82.2363 86 82.4121 85.6777 82.6387 85.4043C82.8652 85.1309 83.1348 84.9199 83.4473 84.7715C83.7637 84.6191 84.1133 84.543 84.4961 84.543C84.8086 84.543 85.0898 84.5859 85.3398 84.6719C85.5898 84.7539 85.8027 84.8867 85.9785 85.0703C86.1582 85.2539 86.2949 85.4922 86.3887 85.7852C86.4824 86.0742 86.5293 86.4277 86.5293 86.8457V91H85.4395V86.834C85.4395 86.502 85.3906 86.2363 85.293 86.0371C85.1953 85.834 85.0527 85.6875 84.8652 85.5977C84.6777 85.5039 84.4473 85.457 84.1738 85.457C83.9043 85.457 83.6582 85.5137 83.4355 85.627C83.2168 85.7402 83.0273 85.8965 82.8672 86.0957C82.7109 86.2949 82.5879 86.5234 82.498 86.7812C82.4121 87.0352 82.3691 87.3047 82.3691 87.5898ZM89.3477 84.6602V91H88.2637V84.6602H89.3477ZM95.875 90.1094V91H91.2637V90.1094H95.875ZM95.7051 85.4277L91.5098 91H90.8477V90.2031L95.0137 84.6602H95.7051V85.4277ZM95.2246 84.6602V85.5566H90.8945V84.6602H95.2246Z" fill="#212121"/>
</svg>
