<svg width="100" height="33" viewBox="0 0 100 33" fill="none" xmlns="http://www.w3.org/2000/svg">
<path d="M96.2963 33H3.7037C1.62963 33 0 31.185 0 28.875V4.125C0 1.815 1.62963 0 3.7037 0H96.2963C98.3704 0 100 1.815 100 4.125V28.875C100 31.185 98.3704 33 96.2963 33Z" fill="black"/>
<path d="M36.7067 21.8815H33.2222L32.3511 24.2044H30.8267L34.2385 15.4933H35.6904L39.1748 24.2044H37.5778L36.7067 21.8815ZM33.6578 20.72H36.2711L35.3274 18.2518C35.1822 17.8889 35.1096 17.5259 34.9644 17.0904C34.8193 17.4533 34.7467 17.8163 34.6015 18.2518L33.6578 20.72Z" fill="white"/>
<path d="M39.8281 19.3407C39.8281 18.8326 39.8281 18.3244 39.7556 17.7437H41.1348C41.2074 18.0341 41.2074 18.2519 41.2074 18.5422C41.7881 17.8889 42.4415 17.5985 43.1674 17.5985C43.603 17.5985 43.9659 17.7437 44.4015 17.9615C44.7644 18.1793 45.0548 18.5422 45.2726 18.9778C45.4904 19.4133 45.6356 20.0667 45.6356 20.7926C45.6356 21.5185 45.4904 22.1719 45.2726 22.7526C44.9822 23.2607 44.6193 23.6963 44.1837 23.9867C43.7481 24.277 43.1674 24.4222 42.5867 24.4222C42.1511 24.4222 41.7156 24.3496 41.28 24.2044V26.8904L39.8281 27.0356V19.3407ZM43.7481 22.6074C44.0385 22.1719 44.1837 21.5911 44.1837 20.7926C44.1837 20.0667 44.0385 19.5585 43.8207 19.1956C43.603 18.9778 43.24 18.76 42.8044 18.76C42.5141 18.76 42.2237 18.8326 42.0059 18.9778C41.7881 19.123 41.4978 19.2681 41.28 19.5585V23.043C41.4252 23.1156 41.5704 23.1881 41.7881 23.1881C42.0059 23.1881 42.1511 23.2607 42.3689 23.2607C43.0222 23.2607 43.4578 23.043 43.7481 22.6074Z" fill="white"/>
<path d="M46.6519 19.3407C46.6519 18.8326 46.6519 18.3244 46.5793 17.7437H47.9585C48.0311 18.0341 48.0311 18.2519 48.0311 18.5422C48.6119 17.8889 49.2652 17.5985 49.9911 17.5985C50.4267 17.5985 50.7896 17.7437 51.2252 17.9615C51.5882 18.1793 51.8785 18.5422 52.0963 18.9778C52.3141 19.4133 52.4593 20.0667 52.4593 20.7926C52.4593 21.5185 52.3141 22.1719 52.0963 22.7526C51.8059 23.2607 51.443 23.6963 51.0074 23.9867C50.5719 24.277 49.9911 24.4222 49.4104 24.4222C48.9748 24.4222 48.5393 24.3496 48.1037 24.2044V26.8904L46.6519 27.0356V19.3407ZM50.5719 22.6074C50.8622 22.1719 51.0074 21.5911 51.0074 20.7926C51.0074 20.0667 50.8622 19.5585 50.6444 19.1956C50.4267 18.9052 50.0637 18.6874 49.6282 18.6874C49.3378 18.6874 49.0474 18.76 48.8296 18.9052C48.6119 19.0504 48.3215 19.1956 48.1037 19.4859V22.9704C48.2489 23.043 48.3941 23.1156 48.6119 23.1156C48.8296 23.1156 48.9748 23.1881 49.1926 23.1881C49.8459 23.2607 50.2815 23.043 50.5719 22.6074Z" fill="white"/>
<path d="M55.363 23.7689C54.7096 23.4059 54.2015 22.8978 53.9111 22.2444C53.5481 21.5911 53.403 20.7926 53.403 19.9215C53.403 18.9778 53.6207 18.1067 53.9837 17.4533C54.3467 16.8 54.9274 16.2919 55.5807 15.9289C56.2341 15.5659 57.0326 15.4207 57.9037 15.4207C58.4118 15.4207 58.8474 15.4933 59.3556 15.5659C59.8637 15.6385 60.2267 15.8563 60.6622 16.0015L60.2993 17.163C59.5007 16.8 58.7748 16.5822 58.0489 16.5822C57.4681 16.5822 56.8874 16.7274 56.4518 16.9452C56.0163 17.2356 55.6533 17.5985 55.363 18.1067C55.1452 18.6148 55 19.1956 55 19.9215C55 20.5748 55.0726 21.083 55.2904 21.5911C55.5081 22.0993 55.7985 22.4622 56.2341 22.7526C56.6696 23.043 57.1778 23.1881 57.8311 23.1881C58.1215 23.1881 58.4119 23.1881 58.7022 23.1156C58.9926 23.043 59.283 22.9704 59.5007 22.8978V21.1556H57.4681V19.9941H60.9526V23.6237C60.4444 23.8415 59.9363 24.0593 59.3556 24.1319C58.7748 24.277 58.2667 24.3496 57.7585 24.3496C56.7422 24.3496 56.0163 24.1319 55.363 23.7689Z" fill="white"/>
<path d="M66.1793 24.2044C66.1067 23.9867 66.1067 23.6963 66.1067 23.3333C65.8889 23.6237 65.5985 23.8415 65.2356 24.0593C64.8726 24.277 64.437 24.3496 64.0015 24.3496C63.6385 24.3496 63.2756 24.277 62.9852 24.1319C62.6948 23.9867 62.4044 23.7689 62.2593 23.4785C62.1141 23.1881 61.9689 22.8252 61.9689 22.3896C61.9689 21.7363 62.1867 21.2281 62.6222 20.8652C63.0578 20.5022 63.8563 20.2844 64.8726 20.2844C65.2356 20.2844 65.6711 20.2844 66.0341 20.357V20.2119C66.0341 19.6311 65.8889 19.2681 65.6711 18.9778C65.4533 18.76 65.0904 18.6148 64.6548 18.6148C64.3644 18.6148 64.0015 18.6874 63.6385 18.76C63.2756 18.8326 62.9852 18.9778 62.6948 19.123L62.477 18.0341C62.7674 17.8889 63.0578 17.8163 63.4933 17.6711C63.9289 17.5985 64.3645 17.5259 64.8726 17.5259C65.4533 17.5259 65.8889 17.5985 66.3245 17.8163C66.6874 17.9615 67.0504 18.2519 67.2682 18.6874C67.4859 19.123 67.6311 19.6311 67.6311 20.357V22.9704C67.6311 23.2607 67.6311 23.6237 67.7037 24.2044H66.1793ZM65.3082 23.043C65.5985 22.8978 65.8889 22.68 66.0341 22.4622V21.2281C65.5985 21.1556 65.3082 21.1556 65.0178 21.1556C64.437 21.1556 64.0015 21.2281 63.7111 21.4459C63.4933 21.6637 63.3481 21.8815 63.3481 22.2444C63.3481 22.5348 63.4207 22.8252 63.6385 22.9704C63.7837 23.1156 64.0741 23.1881 64.3644 23.1881C64.6548 23.2607 64.9452 23.1881 65.3082 23.043Z" fill="white"/>
<path d="M68.7926 22.68V14.9852L70.2444 14.84V22.3896C70.2444 22.68 70.317 22.8252 70.3896 22.9704C70.4622 23.1156 70.6074 23.1156 70.8252 23.1156C70.8978 23.1156 71.043 23.1156 71.1881 23.043L71.3333 24.1319C71.1881 24.2044 71.043 24.2044 70.8252 24.277C70.6074 24.277 70.4622 24.3496 70.2444 24.3496C69.3007 24.3496 68.7926 23.7689 68.7926 22.68Z" fill="white"/>
<path d="M72.4948 22.68V14.9852L73.9467 14.84V22.3896C73.9467 22.68 74.0193 22.8252 74.0918 22.9704C74.1644 23.1156 74.3096 23.1156 74.5274 23.1156C74.6 23.1156 74.7452 23.1156 74.8904 23.043L75.0356 24.1319C74.8904 24.2044 74.7452 24.2044 74.5274 24.277C74.3096 24.277 74.1644 24.3496 73.9467 24.3496C73.003 24.3496 72.4948 23.7689 72.4948 22.68Z" fill="white"/>
<path d="M81.2785 21.1556H77.0681C77.1407 22.5348 77.7941 23.1881 79.0281 23.1881C79.3185 23.1881 79.6089 23.1156 79.9718 23.043C80.2622 22.9704 80.6252 22.8978 80.9156 22.7526L81.2059 23.7689C80.48 24.1319 79.6815 24.277 78.7378 24.277C78.0844 24.277 77.5037 24.1319 76.9956 23.9141C76.4874 23.6237 76.197 23.2607 75.9067 22.8252C75.6889 22.317 75.5437 21.7363 75.5437 21.083C75.5437 20.357 75.6889 19.7763 75.9067 19.2681C76.1244 18.76 76.4874 18.3244 76.9956 18.1067C77.4311 17.8163 77.9393 17.6711 78.52 17.6711C79.1007 17.6711 79.6089 17.8163 80.0444 18.1067C80.48 18.397 80.7704 18.76 80.9881 19.2681C81.2059 19.7763 81.2785 20.2844 81.2785 20.8652V21.1556ZM79.8267 20.2119C79.8267 19.7037 79.6815 19.3407 79.4637 19.0504C79.2459 18.76 78.9556 18.6874 78.52 18.6874C78.157 18.6874 77.7941 18.8326 77.5763 19.0504C77.3585 19.3407 77.1407 19.7037 77.0681 20.2119H79.8267Z" fill="white"/>
<path d="M82.5126 19.3407C82.5126 18.9778 82.5126 18.4696 82.44 17.7437H83.8193C83.8193 17.8889 83.8918 18.1067 83.8918 18.397C83.8918 18.6148 83.9644 18.8326 83.9644 18.9778C84.1096 18.6874 84.3274 18.4696 84.4726 18.2519C84.6178 18.0341 84.8355 17.8889 85.0533 17.7437C85.2711 17.5985 85.5615 17.5259 85.7793 17.5259C85.997 17.5259 86.2148 17.5259 86.36 17.5985L86.1422 18.9052C85.997 18.8326 85.8518 18.8326 85.6341 18.8326C85.2711 18.8326 84.9807 18.9052 84.6904 19.123C84.4 19.3407 84.1822 19.5585 83.8918 19.9941V24.1319H82.44V19.3407H82.5126Z" fill="white"/>
<path d="M87.3037 26.8904C87.0859 26.8178 86.9407 26.8178 86.7956 26.7452L87.0859 25.6563C87.1585 25.6563 87.3037 25.7289 87.4489 25.7289C87.5941 25.7289 87.7393 25.8015 87.8844 25.8015C88.5378 25.8015 89.0459 25.3659 89.3363 24.5674L89.4089 24.3496L87.0133 17.8163H88.6104L89.8444 21.4459C90.0622 22.0993 90.1348 22.5348 90.2074 22.8978C90.3526 22.4622 90.4252 21.9541 90.5704 21.5185L91.8044 17.8163H93.3289L90.9333 24.3496C90.7156 25.003 90.4978 25.4385 90.2074 25.8741C89.917 26.237 89.6267 26.5274 89.2637 26.7452C88.9007 26.963 88.4652 27.0356 87.957 27.0356C87.7393 26.8904 87.4489 26.8904 87.3037 26.8904Z" fill="white"/>
<path d="M30.8267 7H33.5126L33.44 7.65333H31.6252V8.88741H33.3674V9.46815H31.6252V10.8474H33.5126L33.44 11.5007H30.8267V7Z" fill="white"/>
<path d="M35.3274 9.25037L33.9481 7H34.8193L35.763 8.66963L36.7793 7H37.6504L36.2711 9.17778L37.7956 11.5007H36.9244L35.8356 9.68593L34.7467 11.5007H33.803L35.3274 9.25037Z" fill="white"/>
<path d="M38.3037 7H39.5378C40.1185 7 40.5541 7.14519 40.8444 7.36296C41.1348 7.58074 41.28 7.9437 41.28 8.37926C41.28 8.66963 41.2074 8.96 41.0622 9.17778C40.917 9.39556 40.6993 9.54074 40.4815 9.68593C40.2637 9.83111 39.9733 9.83111 39.6104 9.83111C39.4652 9.83111 39.2474 9.83111 39.0296 9.75852V11.5007H38.2311V7H38.3037ZM40.2637 9.03259C40.4089 8.88741 40.4815 8.66963 40.4815 8.37926C40.4815 8.08889 40.4089 7.87111 40.1911 7.79852C40.0459 7.65333 39.7556 7.58074 39.4652 7.58074H39.0296V9.17778C39.2474 9.17778 39.3926 9.25037 39.4652 9.25037C39.9007 9.32296 40.1185 9.25037 40.2637 9.03259Z" fill="white"/>
<path d="M42.0785 7H42.877V10.8474H44.7644L44.6919 11.5733H42.0785V7Z" fill="white"/>
<path d="M45.9259 11.3556C45.563 11.1378 45.3452 10.92 45.2 10.557C45.0548 10.1941 44.9096 9.83111 44.9096 9.32296C44.9096 8.81481 44.9822 8.45185 45.2 8.08889C45.4178 7.72593 45.6356 7.43556 45.9985 7.29037C46.3615 7.07259 46.797 7 47.2326 7C47.6681 7 48.1037 7.07259 48.3941 7.29037C48.757 7.50815 48.9748 7.72593 49.12 8.08889C49.2652 8.45185 49.4104 8.81481 49.4104 9.25037C49.4104 9.75852 49.3378 10.1941 49.12 10.557C48.9022 10.92 48.6844 11.2104 48.3215 11.3556C47.9585 11.5733 47.5956 11.6459 47.0874 11.6459C46.7244 11.6459 46.2889 11.5733 45.9259 11.3556ZM48.0311 10.7748C48.2489 10.6296 48.3941 10.4119 48.5393 10.1941C48.6119 9.9037 48.6844 9.61333 48.6844 9.32296C48.6844 9.03259 48.6119 8.66963 48.5393 8.45185C48.4667 8.16148 48.3215 8.0163 48.1037 7.87111C47.8859 7.72593 47.5956 7.65333 47.3052 7.65333C47.0148 7.65333 46.7244 7.72593 46.5067 7.87111C46.2889 8.0163 46.1437 8.23407 45.9985 8.52444C45.8533 8.81481 45.8533 9.03259 45.8533 9.39556C45.8533 9.75852 45.9259 10.0489 45.9985 10.2667C46.0711 10.557 46.2889 10.7022 46.5067 10.8474C46.7244 10.9926 47.0148 11.0652 47.3052 11.0652C47.523 10.9926 47.7407 10.92 48.0311 10.7748Z" fill="white"/>
<path d="M50.3541 7H51.8059C52.3141 7 52.7496 7.07259 52.9674 7.29037C53.2578 7.50815 53.403 7.79852 53.403 8.16148C53.403 8.37926 53.3304 8.59704 53.2578 8.81481C53.1852 9.03259 53.04 9.17778 52.8948 9.25037C52.7496 9.39556 52.6044 9.46815 52.4593 9.54074L53.8385 11.5733H52.8948L51.7333 9.75852H51.1526V11.5733H50.3541V7ZM51.5882 9.17778C51.8059 9.17778 51.9511 9.10519 52.0963 9.03259C52.2415 8.96 52.3867 8.88741 52.4593 8.74222C52.5319 8.59704 52.6044 8.45185 52.6044 8.30667C52.6044 8.08889 52.5319 7.9437 52.3867 7.79852C52.2415 7.72593 52.0237 7.65333 51.7333 7.65333H51.1526V9.17778H51.5882Z" fill="white"/>
<path d="M54.4193 7H57.1052L57.0326 7.65333H55.2178V8.88741H56.96V9.46815H55.2178V10.8474H57.1052L57.0326 11.5733H54.4193V7Z" fill="white"/>
<path d="M60.0089 7H60.8074V11.5733H60.0089V7Z" fill="white"/>
<path d="M62.84 7.72593H61.4607L61.5333 7.07259H65.0904L65.0178 7.72593H63.7111V11.6459H62.84V7.72593Z" fill="white"/>
<path d="M68.5022 11.3556C68.1393 11.1378 67.9215 10.92 67.7763 10.557C67.6311 10.1941 67.4859 9.83111 67.4859 9.32296C67.4859 8.81481 67.5585 8.45185 67.7763 8.08889C67.9941 7.72593 68.2118 7.43556 68.5748 7.29037C68.9378 7.07259 69.3733 7 69.8089 7C70.2444 7 70.68 7.07259 70.9704 7.29037C71.3333 7.50815 71.5511 7.72593 71.6963 8.08889C71.8415 8.45185 71.9867 8.81481 71.9867 9.25037C71.9867 9.75852 71.9141 10.1941 71.6963 10.557C71.4785 10.92 71.2607 11.2104 70.8978 11.3556C70.5348 11.5733 70.1718 11.6459 69.6637 11.6459C69.2281 11.6459 68.7926 11.5733 68.5022 11.3556ZM70.5348 10.7748C70.7526 10.6296 70.8978 10.4119 71.043 10.1941C71.1156 9.9037 71.1881 9.61333 71.1881 9.32296C71.1881 9.03259 71.1156 8.66963 71.043 8.45185C70.9704 8.16148 70.8252 8.0163 70.6074 7.87111C70.3896 7.72593 70.0993 7.65333 69.8089 7.65333C69.5185 7.65333 69.2281 7.72593 69.0104 7.87111C68.7926 8.0163 68.6474 8.23407 68.5022 8.52444C68.357 8.81481 68.357 9.03259 68.357 9.39556C68.357 9.75852 68.4296 10.0489 68.5022 10.2667C68.5748 10.557 68.7926 10.7022 69.0104 10.8474C69.2281 10.9926 69.5185 11.0652 69.8089 11.0652C70.0267 10.9926 70.317 10.92 70.5348 10.7748Z" fill="white"/>
<path d="M72.8578 7H73.7289L75.9793 10.4844C75.9793 10.1215 75.9793 9.83111 75.9793 9.54074V7H76.7052V11.5733H75.8341L73.5837 8.0163C73.5837 8.45185 73.5837 8.81481 73.5837 9.10518V11.5733H72.8578V7Z" fill="white"/>
<path fill-rule="evenodd" clip-rule="evenodd" d="M19.7926 7H11.3719C7.45185 7 6 8.45185 6 12.3719V20.72C6 24.64 7.45185 26.0918 11.3719 26.0918H19.72C23.64 26.0918 25.0919 24.64 25.0919 20.72V12.3719C25.1644 8.45185 23.7126 7 19.7926 7Z" fill="#C8102E"/>
<path d="M9.77482 16.5822H10.283V19.123H9.77482V18.1067H8.68593V19.123H8.17778V16.5822H8.68593V17.5985H9.84741V16.5822H9.77482ZM12.6785 18.0341C12.6785 18.4696 12.4607 18.6874 12.0978 18.6874C11.7348 18.6874 11.517 18.4696 11.517 18.0341V16.5822H11.0089V18.0341C11.0089 18.76 11.3719 19.123 12.0978 19.123C12.7511 19.123 13.1867 18.6874 13.1867 17.9615V16.5822H12.6785V18.0341ZM18.5585 18.3244L17.9778 16.5822H17.5422L16.9615 18.3244L16.4533 16.5822H15.9452L16.8163 19.123H17.2519L17.8326 17.4533L18.4133 19.123H18.8489L19.72 16.5822H19.2119L18.5585 18.3244ZM20.5185 18.0341H21.4622V17.5985H20.5185V17.0904H21.8252V16.5822H20.0104V19.0504H21.8978V18.6148H20.5185V18.0341ZM22.5511 19.0504H23.0593V16.5822H22.5511V19.0504ZM14.203 18.5422L13.9852 19.0504H13.477L14.5659 16.5822H15.0015L16.0904 19.0504H15.5822L15.3644 18.5422H14.203ZM14.3481 18.1067H15.1467L14.7837 17.2356L14.3481 18.1067Z" fill="white"/>
<path d="M15.5822 13.3881C13.84 13.3881 12.3881 11.9363 12.3881 10.1941H12.8237C12.8237 11.7185 14.0578 12.9526 15.5822 12.9526C17.1067 12.9526 18.3407 11.7185 18.3407 10.1941H18.7763C18.7763 11.9363 17.3244 13.3881 15.5822 13.3881Z" fill="white"/>
</svg>
