<?xml version="1.0" encoding="UTF-8"?>
<svg width="21px" height="14px" viewBox="0 0 21 14" version="1.1" xmlns="http://www.w3.org/2000/svg" xmlns:xlink="http://www.w3.org/1999/xlink">
    <!-- Generator: sketchtool 50.2 (55047) - http://www.bohemiancoding.com/sketch -->
    <title>09BE9046-666D-48F2-867E-CEC11F0551C9</title>
    <desc>Created with sketchtool.</desc>
    <defs></defs>
    <g id="symbols" stroke="none" stroke-width="1" fill="none" fill-rule="evenodd">
        <g id="input/icon/keyboard" transform="translate(0.000000, -4.000000)" fill="#A8A6A6">
            <g id="icon/keyboard" transform="translate(0.000000, 5.000000)">
                <path d="M0.531819421,0.958646695 C0.531819421,0.350863628 1.05801703,-0.15 1.69403408,-0.15 L19.3067724,-0.15 C19.9426741,-0.15 20.4681818,0.350756657 20.4681818,0.958658705 L20.4673745,11.0413533 C20.4673745,11.6492433 19.9418668,12.15 19.3059651,12.15 L1.69322758,12.15 C1.0573259,12.15 0.531818182,11.6492433 0.531818182,11.0413533 L0.531818182,0.958646695 Z M19.4665482,0.958523206 C19.4663583,0.928989633 19.3981629,0.879151476 19.306027,0.879151476 L1.69328891,0.879151476 C1.60776056,0.879151476 1.55455077,0.922145904 1.55455077,0.958634697 L1.55535727,11.0413533 C1.55535727,11.0781673 1.60807671,11.1208485 1.69409541,11.1208485 L19.3276865,11.1208485 C19.4132149,11.1208485 19.4664247,11.0778541 19.4664247,11.0413533 L19.4664247,0.958646695 L19.4665482,0.95852318 Z" id="Fill-1" stroke="#A8A6A6" stroke-width="0.3"></path>
                <path d="M7.0433012,6.9622963 C6.78556627,6.70225026 6.78556627,6.3056377 7.0433012,6.04559165 C7.30177235,5.78480278 7.69715817,5.78480278 7.95562932,6.04559165 C8.21336425,6.3056377 8.21336425,6.70225026 7.95562932,6.9622963 C7.69715817,7.22308517 7.30177235,7.22308517 7.0433012,6.9622963 Z" id="Path" stroke="#A8A6A6" stroke-width="0.3"></path>
                <path d="M10.0433012,6.9622963 C9.78556627,6.70225026 9.78556627,6.3056377 10.0433012,6.04559165 C10.3017723,5.78480278 10.6971582,5.78480278 10.9556293,6.04559165 C11.2133642,6.3056377 11.2133642,6.70225026 10.9556293,6.9622963 C10.6971582,7.22308517 10.3017723,7.22308517 10.0433012,6.9622963 Z" id="Path-Copy" stroke="#A8A6A6" stroke-width="0.3"></path>
                <path d="M13.0433012,6.9622963 C12.7855663,6.70225026 12.7855663,6.3056377 13.0433012,6.04559165 C13.3017723,5.78480278 13.6971582,5.78480278 13.9556293,6.04559165 C14.2133642,6.3056377 14.2133642,6.70225026 13.9556293,6.9622963 C13.6971582,7.22308517 13.3017723,7.22308517 13.0433012,6.9622963 Z" id="Path-Copy-2" stroke="#A8A6A6" stroke-width="0.3"></path>
                <path d="M4.04909663,3.96783918 L4.0433012,3.9622963 C3.78556627,3.70225026 3.78556627,3.3056377 4.0433012,3.04559165 C4.30177235,2.78480278 4.69715817,2.78480278 4.95562932,3.04559165 C5.21336425,3.3056377 5.21336425,3.70225026 4.94983388,3.96783918 C4.69288177,4.20076532 4.30604874,4.20076532 4.04909663,3.96783918 Z" id="Path" stroke="#A8A6A6" stroke-width="0.3"></path>
                <path d="M7.04909663,3.96783918 L7.0433012,3.9622963 C6.78556627,3.70225026 6.78556627,3.3056377 7.0433012,3.04559165 C7.30177235,2.78480278 7.69715817,2.78480278 7.95562932,3.04559165 C8.21336425,3.3056377 8.21336425,3.70225026 7.94983388,3.96783918 C7.69288177,4.20076532 7.30604874,4.20076532 7.04909663,3.96783918 Z" id="Path-Copy-3" stroke="#A8A6A6" stroke-width="0.3"></path>
                <path d="M10.0490966,3.96783918 L10.0433012,3.9622963 C9.78556627,3.70225026 9.78556627,3.3056377 10.0433012,3.04559165 C10.3017723,2.78480278 10.6971582,2.78480278 10.9556293,3.04559165 C11.2133642,3.3056377 11.2133642,3.70225026 10.9498339,3.96783918 C10.6928818,4.20076532 10.3060487,4.20076532 10.0490966,3.96783918 Z" id="Path-Copy-4" stroke="#A8A6A6" stroke-width="0.3"></path>
                <path d="M13.0490966,3.96783918 L13.0433012,3.9622963 C12.7855663,3.70225026 12.7855663,3.3056377 13.0433012,3.04559165 C13.3017723,2.78480278 13.6971582,2.78480278 13.9556293,3.04559165 C14.2133642,3.3056377 14.2133642,3.70225026 13.9498339,3.96783918 C13.6928818,4.20076532 13.3060487,4.20076532 13.0490966,3.96783918 Z" id="Path-Copy-5" stroke="#A8A6A6" stroke-width="0.3"></path>
                <path d="M16.0490966,3.96783918 L16.0433012,3.9622963 C15.7855663,3.70225026 15.7855663,3.3056377 16.0433012,3.04559165 C16.3017723,2.78480278 16.6971582,2.78480278 16.9556293,3.04559165 C17.2133642,3.3056377 17.2133642,3.70225026 16.9498339,3.96783918 C16.6928818,4.20076532 16.3060487,4.20076532 16.0490966,3.96783918 Z" id="Path-Copy-6" stroke="#A8A6A6" stroke-width="0.3"></path>
                <rect id="Rectangle-13" x="6" y="9" width="9" height="1" rx="0.5"></rect>
            </g>
        </g>
    </g>
</svg>