<svg width="100" height="33" viewBox="0 0 100 33" fill="none" xmlns="http://www.w3.org/2000/svg">
<path d="M96.2963 33H3.7037C1.62963 33 0 31.185 0 28.875V4.125C0 1.815 1.62963 0 3.7037 0H96.2963C98.3704 0 100 1.815 100 4.125V28.875C100 31.185 98.3704 33 96.2963 33Z" fill="black"/>
<path d="M7 7.0788V17.914V28.7491L17.9273 17.9142L7 7.0788Z" fill="url(#paint0_linear_2_305)"/>
<path d="M20.8623 15.0038L16.4513 12.4571L7 7V7.07879L17.9273 17.9142L20.8623 15.0038Z" fill="url(#paint1_linear_2_305)"/>
<path d="M7 28.7491V28.828L16.4513 23.3707L20.8621 20.8242L17.9273 17.9142L7 28.7491Z" fill="url(#paint2_linear_2_305)"/>
<path d="M20.8625 15.0038L17.9275 17.9142L20.8623 20.8242L25.9033 17.914L20.8625 15.0038Z" fill="url(#paint3_linear_2_305)"/>
<path d="M75.795 22.1501C75.3846 22.1501 75.0101 22.0745 74.6711 21.9232C74.3319 21.7717 74.0469 21.5388 73.8167 21.2247H73.748C73.794 21.5926 73.8167 21.9415 73.8167 22.271V24.8642H72.8629V15.733H73.639L73.771 16.5955H73.817C74.0627 16.2503 74.3482 16.0013 74.674 15.848C74.9997 15.6946 75.3738 15.6179 75.7952 15.6179C76.631 15.6179 77.2762 15.9037 77.7302 16.4748C78.1844 17.046 78.4117 17.8472 78.4117 18.8782C78.4117 19.9133 78.1807 20.7172 77.7192 21.2908C77.2569 21.8638 76.6157 22.1501 75.795 22.1501ZM75.657 16.4288C75.013 16.4288 74.5474 16.6071 74.2599 16.9635C73.9725 17.3201 73.8246 17.8875 73.8167 18.6658V18.8783C73.8167 19.764 73.9646 20.3975 74.2599 20.7789C74.5552 21.1603 75.0288 21.3509 75.6801 21.3509C76.2247 21.3509 76.6514 21.1306 76.9601 20.6898C77.2684 20.2492 77.4227 19.6415 77.4227 18.8667C77.4227 18.0811 77.2684 17.478 76.9601 17.0584C76.6513 16.6385 76.2168 16.4288 75.657 16.4288Z" fill="#F9F9F9"/>
<path d="M80.6216 22.0351H79.6672V13.0879H80.6216V22.0351Z" fill="#F9F9F9"/>
<path d="M86.1092 22.0351L85.9192 21.138H85.8733C85.559 21.5332 85.2456 21.8007 84.9331 21.9402C84.6208 22.0805 84.2305 22.1502 83.763 22.1502C83.1382 22.1502 82.6485 21.9892 82.2938 21.6672C81.9391 21.3452 81.7619 20.8874 81.7619 20.2931C81.7619 19.0206 82.7798 18.3536 84.8151 18.2919L85.885 18.2574V17.8665C85.885 17.3719 85.7785 17.0066 85.5656 16.7712C85.353 16.5351 85.0125 16.4174 84.5451 16.4174C84.0197 16.4174 83.4252 16.5784 82.7624 16.9004L82.469 16.1701C82.7798 16.0014 83.1197 15.8692 83.4898 15.7734C83.8596 15.6776 84.2305 15.6296 84.6026 15.6296C85.3538 15.6296 85.9105 15.7962 86.273 16.1298C86.6349 16.4634 86.8162 16.9981 86.8162 17.7342V22.0352L86.1092 22.0351ZM83.953 21.3625C84.547 21.3625 85.0135 21.1997 85.3531 20.8739C85.6922 20.5482 85.862 20.0919 85.862 19.505V18.9358L84.9071 18.9758C84.1482 19.0031 83.6013 19.1206 83.2655 19.3299C82.9302 19.5388 82.7624 19.8637 82.7624 20.3045C82.7624 20.6493 82.8666 20.9121 83.0758 21.092C83.2848 21.2724 83.5768 21.3625 83.953 21.3625Z" fill="#F9F9F9"/>
<path d="M87.3703 15.733H88.3935L89.7736 19.3269C90.0764 20.1475 90.2644 20.7396 90.3375 21.1039H90.3836C90.4335 20.908 90.5379 20.5738 90.6967 20.0999C90.8558 19.6265 91.3764 18.1711 92.2577 15.7329H93.2816L90.573 22.909C90.3048 23.6182 89.9914 24.1214 89.6327 24.4189C89.2745 24.7157 88.8343 24.864 88.3134 24.864C88.0218 24.864 87.7344 24.8315 87.4505 24.7665V24.0019C87.6612 24.0479 87.8973 24.0711 88.158 24.0711C88.8136 24.0711 89.2809 23.7031 89.5611 22.9669L89.9118 22.07L87.3703 15.733Z" fill="#F9F9F9"/>
<path d="M58.1133 16.3185C58.4163 16.5692 59.0489 17.0961 59.0489 18.0983C59.0489 19.0731 58.4953 19.5354 57.9415 19.9698C57.7701 20.1409 57.5724 20.3262 57.5724 20.6165C57.5724 20.9058 57.77 21.0642 57.9155 21.183L58.3903 21.5513C58.9703 22.0392 59.4969 22.4876 59.4969 23.3976C59.4969 24.6365 58.2973 25.8884 56.0305 25.8884C54.1188 25.8884 53.1965 24.9792 53.1965 24.0031C53.1965 23.5287 53.4328 22.8569 54.2115 22.3949C55.0281 21.8939 56.1362 21.8287 56.7291 21.7882C56.544 21.5512 56.3335 21.3007 56.3335 20.8928C56.3335 20.669 56.3996 20.537 56.4654 20.378C56.3199 20.3914 56.1751 20.4046 56.0431 20.4046C54.6464 20.4046 53.8554 19.3631 53.8554 18.3354C53.8554 17.729 54.1326 17.0563 54.6987 16.569C55.4503 15.9495 56.3466 15.8438 57.059 15.8438H59.7738L58.9302 16.3183L58.1133 16.3185ZM57.1772 22.1716C57.0719 22.1577 57.0056 22.1577 56.8745 22.1577C56.7558 22.1577 56.0431 22.1846 55.4901 22.3697C55.2002 22.4743 54.3563 22.7907 54.3563 23.727C54.3563 24.6624 55.2663 25.3357 56.6769 25.3357C57.9415 25.3357 58.6145 24.7281 58.6145 23.9115C58.6144 23.2381 58.1792 22.8836 57.1772 22.1716ZM57.5597 19.6667C57.8625 19.3632 57.8884 18.9418 57.8884 18.7042C57.8884 17.7553 57.3219 16.2791 56.2281 16.2791C55.885 16.2791 55.5163 16.4502 55.3052 16.7143C55.0814 16.9911 55.015 17.3465 55.015 17.6896C55.015 18.5727 55.5292 20.0359 56.6633 20.0359C56.9928 20.036 57.3479 19.8778 57.5597 19.6667Z" fill="#F9F9F9"/>
<path d="M49.8146 21.9606C47.7224 21.9606 46.6037 20.3285 46.6037 18.8543C46.6037 17.1302 48.0117 15.6569 50.0128 15.6569C51.9465 15.6569 53.1574 17.1698 53.1574 18.7627C53.1574 20.3149 51.9604 21.9606 49.8146 21.9606ZM51.4594 20.8948C51.7758 20.4733 51.8548 19.9471 51.8548 19.4335C51.8548 18.2751 51.3021 16.0644 49.67 16.0644C49.2359 16.0644 48.8017 16.2359 48.4859 16.5127C47.9726 16.9727 47.8799 17.5519 47.8799 18.1186C47.8799 19.4205 48.5249 21.565 50.1177 21.565C50.6309 21.5649 51.1574 21.3154 51.4594 20.8948Z" fill="#F9F9F9"/>
<path d="M42.6815 21.9606C40.5888 21.9606 39.4702 20.3285 39.4702 18.8543C39.4702 17.1302 40.8787 15.6569 42.8792 15.6569C44.8135 15.6569 46.0241 17.1698 46.0241 18.7627C46.0241 20.3149 44.8269 21.9606 42.6815 21.9606ZM44.3267 20.8948C44.6426 20.4733 44.7218 19.9471 44.7218 19.4335C44.7218 18.2751 44.1687 16.0644 42.5366 16.0644C42.1027 16.0644 41.6682 16.2359 41.3526 16.5127C40.8394 16.9727 40.7473 17.5519 40.7473 18.1186C40.7473 19.4205 41.3918 21.565 42.9849 21.565C43.498 21.5649 44.0241 21.3154 44.3267 20.8948Z" fill="#F9F9F9"/>
<path d="M38.4651 21.7543L36.5727 22.191C35.805 22.3104 35.1171 22.4153 34.3898 22.4153C30.7376 22.4153 29.3488 19.7293 29.3488 17.6254C29.3488 15.0589 31.3199 12.6779 34.6944 12.6779C35.4091 12.6779 36.0965 12.7834 36.7183 12.9556C37.7106 13.2336 38.1737 13.5772 38.4649 13.776L37.3664 14.8212L36.9036 14.9265L37.2343 14.3971C36.7847 13.9608 35.9637 13.1539 34.4029 13.1539C32.3122 13.1539 30.7375 14.7423 30.7375 17.0576C30.7375 19.5443 32.5372 21.8863 35.421 21.8863C36.2687 21.8863 36.7044 21.7144 37.1016 21.5553V19.4255L35.104 19.5312L36.162 18.9617H38.9672L38.6235 19.2923C38.5302 19.3721 38.5174 19.3988 38.4909 19.5037C38.4772 19.6231 38.4648 20.0071 38.4648 20.1393L38.4651 21.7543Z" fill="#F9F9F9"/>
<path d="M62.295 21.3733C61.8582 21.3336 61.7668 21.2545 61.7668 20.7379V20.5922V13.2492C61.7694 13.2206 61.7713 13.1915 61.7739 13.1638C61.8273 12.701 61.9593 12.6216 62.3701 12.3831H60.4773L59.4846 12.8595H60.4962V12.8655L60.4955 12.8607V20.5921V21.0292C60.4955 21.2933 60.4432 21.3335 60.1386 21.73H62.4808L62.9704 21.4397C62.7456 21.4125 62.5203 21.3996 62.295 21.3733Z" fill="#F9F9F9"/>
<path d="M67.679 21.4949C67.535 21.5739 67.3905 21.6663 67.2464 21.7315C66.812 21.9286 66.3654 21.9812 65.9705 21.9812C65.551 21.9812 64.8934 21.9542 64.2227 21.4685C63.2905 20.8111 62.8833 19.6811 62.8833 18.6958C62.8833 16.6594 64.5388 15.6609 65.8922 15.6609C66.3653 15.6609 66.8521 15.7789 67.2464 16.029C67.9028 16.4618 68.0736 17.0268 68.1649 17.3292L65.078 18.578L64.0659 18.6569C64.3939 20.3255 65.524 21.2972 66.7728 21.2972C67.4427 21.2972 67.929 21.0611 68.3756 20.8381L67.679 21.4949ZM66.4444 17.5787C66.6935 17.487 66.825 17.408 66.825 17.2242C66.825 16.699 66.234 16.0942 65.5239 16.0942C64.9977 16.0942 64.013 16.5017 64.013 17.9205C64.013 18.1439 64.0392 18.3804 64.0529 18.6176L66.4444 17.5787Z" fill="#F9F9F9"/>
<path d="M68.9474 15.7508V16.6178H68.8421V15.7508H68.5551V15.661H69.234V15.7508H68.9474Z" fill="#F9F9F9"/>
<path d="M70.1293 16.6178V15.7427H70.1244L69.8573 16.6178H69.775L69.5057 15.7427H69.5023V16.6178H69.4067V15.661H69.5707L69.8144 16.4344H69.8178L70.0578 15.661H70.224V16.6178H70.1293Z" fill="#F9F9F9"/>
<path d="M31.9765 10.1015H31.3191C31.3191 10.0111 31.2567 9.75503 31.1321 9.33313H30.1829C30.0541 9.74813 29.9897 10.0042 29.9897 10.1015H29.3713C29.3713 10.0481 29.5312 9.60972 29.851 8.78662C30.1708 7.96342 30.3307 7.50989 30.3307 7.42639H31.1074C31.1074 7.50449 31.2522 7.9512 31.5419 8.7669C31.8316 9.5826 31.9765 10.0275 31.9765 10.1015ZM31.0273 8.94073C30.793 8.23393 30.676 7.85181 30.676 7.79431H30.6431C30.6431 7.84771 30.5219 8.22983 30.2795 8.94073H31.0273Z" fill="#FBFBFB"/>
<path d="M34.6259 10.1015H34.1184C34.1184 10.0453 33.93 9.74881 33.5534 9.21191C33.1589 8.64621 32.9343 8.25928 32.8795 8.05108H32.8466C32.8808 8.35098 32.898 8.62228 32.898 8.86468C32.898 9.20288 32.9075 9.6153 32.9268 10.1015H32.4213C32.4418 9.6769 32.4522 9.21063 32.4522 8.70233C32.4522 8.20233 32.4418 7.77699 32.4213 7.42639H33.0316C33.0316 7.49909 33.2007 7.78883 33.5391 8.29553C33.8993 8.83383 34.1061 9.19882 34.1596 9.39062H34.1903C34.1575 9.08522 34.1411 8.81118 34.1411 8.56878C34.1411 8.19768 34.1315 7.81681 34.1123 7.42651H34.6259C34.6067 7.76631 34.5973 8.19159 34.5973 8.70239C34.5971 9.21729 34.6066 9.6836 34.6259 10.1015Z" fill="#FBFBFB"/>
<path d="M37.6035 8.67151C37.6035 9.06061 37.4789 9.40011 37.2296 9.69061C36.9803 9.98101 36.631 10.1261 36.1818 10.1261C35.979 10.1261 35.6996 10.1179 35.3435 10.1014C35.3612 9.68774 35.3702 9.22131 35.3702 8.70221C35.3702 8.20371 35.3612 7.77843 35.3435 7.42633H35.703C35.7618 7.42633 35.8495 7.4243 35.966 7.4201C36.0824 7.416 36.1584 7.41394 36.1941 7.41394C36.6885 7.41394 37.047 7.53719 37.2696 7.78369C37.4922 8.03049 37.6035 8.32631 37.6035 8.67151ZM37.0426 8.75988C37.0426 8.49688 36.9658 8.27541 36.8125 8.09521C36.6591 7.91511 36.4248 7.82513 36.1098 7.82513C36.0509 7.82513 35.9701 7.83133 35.8674 7.84363C35.8811 8.11763 35.888 8.40369 35.888 8.70239C35.888 9.02989 35.8948 9.35443 35.9086 9.67633C35.9976 9.69413 36.0866 9.703 36.1757 9.703C36.4701 9.703 36.6883 9.61139 36.8301 9.42859C36.9719 9.24579 37.0426 9.02278 37.0426 8.75988Z" fill="#FBFBFB"/>
<path d="M40.3494 10.1015H39.7412C39.5823 9.6166 39.4604 9.31743 39.3755 9.20373C39.2905 9.08993 39.1536 9.0332 38.9646 9.0332C38.8851 9.0332 38.8091 9.03394 38.7365 9.03534C38.7365 9.38744 38.7427 9.74282 38.755 10.1016H38.1838C38.2016 9.68792 38.2105 9.22149 38.2105 8.70239C38.2105 8.20389 38.2015 7.77861 38.1838 7.42651H38.5393C38.5804 7.42651 38.6663 7.42449 38.7971 7.42029C38.9278 7.41619 39.0488 7.41412 39.1598 7.41412C39.7885 7.41412 40.1029 7.6291 40.1029 8.0592C40.1029 8.4003 39.9234 8.63781 39.5646 8.77221V8.80304C39.7029 8.84134 39.8241 8.94922 39.9282 9.12652C40.0322 9.30392 40.1727 9.629 40.3494 10.1015ZM39.5789 8.2113C39.5789 7.9388 39.4035 7.80243 39.0529 7.80243C38.9241 7.80243 38.8105 7.81203 38.7118 7.83123C38.7269 8.04353 38.7344 8.32019 38.7344 8.66119C38.8097 8.66399 38.8734 8.66528 38.9254 8.66528C39.3611 8.66528 39.5789 8.5141 39.5789 8.2113Z" fill="#FBFBFB"/>
<path d="M43.2946 8.7146C43.2946 9.1351 43.1658 9.48383 42.9083 9.76043C42.6507 10.037 42.3324 10.1754 41.953 10.1754C41.5914 10.1754 41.2886 10.0484 41.0449 9.79419C40.8011 9.54019 40.6792 9.21722 40.6792 8.82562C40.6792 8.40512 40.8078 8.05638 41.0653 7.77978C41.3228 7.50318 41.6413 7.3648 42.0208 7.3648C42.3824 7.3648 42.6851 7.49143 42.9289 7.74493C43.1727 7.99843 43.2946 8.3215 43.2946 8.7146ZM42.7276 8.77423C42.7276 8.48793 42.6543 8.25579 42.5078 8.07769C42.3612 7.89969 42.1804 7.81061 41.9654 7.81061C41.7654 7.81061 41.5955 7.90033 41.4558 8.07983C41.3161 8.25923 41.2464 8.48588 41.2464 8.75988C41.2464 9.04478 41.3199 9.27652 41.4672 9.45532C41.6144 9.63402 41.7949 9.72351 42.0086 9.72351C42.2086 9.72351 42.3784 9.63348 42.5181 9.45318C42.6577 9.27308 42.7276 9.04673 42.7276 8.77423Z" fill="#FBFBFB"/>
<path d="M44.4561 10.1015H43.8747C43.8924 9.6769 43.9015 9.21063 43.9015 8.70233C43.9015 8.20233 43.8924 7.77699 43.8747 7.42639H44.4561C44.4383 7.77159 44.4295 8.19693 44.4295 8.70233C44.4295 9.21883 44.4383 9.6852 44.4561 10.1015Z" fill="#FBFBFB"/>
<path d="M47.4342 8.67151C47.4342 9.06061 47.3096 9.40011 47.0603 9.69061C46.8109 9.98101 46.4617 10.1261 46.0124 10.1261C45.8097 10.1261 45.5301 10.1179 45.174 10.1014C45.1918 9.68774 45.2008 9.22131 45.2008 8.70221C45.2008 8.20371 45.1917 7.77843 45.174 7.42633H45.5337C45.5925 7.42633 45.6802 7.4243 45.7967 7.4201C45.913 7.416 45.989 7.41394 46.0246 7.41394C46.519 7.41394 46.8776 7.53719 47.1002 7.78369C47.3227 8.03049 47.4342 8.32631 47.4342 8.67151ZM46.8733 8.75988C46.8733 8.49688 46.7965 8.27541 46.6432 8.09521C46.4898 7.91511 46.2555 7.82513 45.9405 7.82513C45.8816 7.82513 45.8007 7.83133 45.698 7.84363C45.7117 8.11763 45.7187 8.40369 45.7187 8.70239C45.7187 9.02989 45.7255 9.35443 45.7392 9.67633C45.8283 9.69413 45.9171 9.703 46.0062 9.703C46.3007 9.703 46.5189 9.61139 46.6607 9.42859C46.8024 9.24569 46.8733 9.02278 46.8733 8.75988Z" fill="#FBFBFB"/>
<path d="M51.3847 10.1015H50.7273C50.7273 10.0111 50.6649 9.75503 50.5401 9.33313H49.5909C49.4622 9.74813 49.3977 10.0042 49.3977 10.1015H48.7795C48.7795 10.0481 48.9394 9.60972 49.2592 8.78662C49.579 7.96342 49.7388 7.50989 49.7388 7.42639H50.5154C50.5154 7.50449 50.6604 7.9512 50.95 8.7669C51.2398 9.5826 51.3847 10.0275 51.3847 10.1015ZM50.4354 8.94073C50.2011 8.23393 50.0839 7.85181 50.0839 7.79431H50.051C50.051 7.84771 49.9301 8.22983 49.6876 8.94073H50.4354Z" fill="#FBFBFB"/>
<path d="M53.7813 8.12713C53.7813 8.45453 53.6597 8.69621 53.4166 8.85241C53.1736 9.00851 52.8753 9.08661 52.5219 9.08661C52.4574 9.08661 52.4117 9.08532 52.3842 9.08252C52.3842 9.34012 52.3918 9.6796 52.4069 10.1015H51.8296C51.8473 9.7057 51.8563 9.23933 51.8563 8.70233C51.8563 8.20923 51.8473 7.78389 51.8296 7.42639H52.187C52.2376 7.42639 52.335 7.42442 52.4788 7.42022C52.6226 7.41612 52.7472 7.414 52.8527 7.414C53.1129 7.414 53.3327 7.4728 53.5122 7.5907C53.6918 7.7087 53.7813 7.88743 53.7813 8.12713ZM53.2514 8.23999C53.2514 7.94699 53.0569 7.80041 52.6679 7.80041C52.5705 7.80041 52.4677 7.81073 52.3596 7.83123C52.3747 8.09013 52.3823 8.38311 52.3823 8.71051C52.4165 8.71331 52.4563 8.7146 52.5015 8.7146C53.0015 8.7146 53.2514 8.55639 53.2514 8.23999Z" fill="#FBFBFB"/>
<path d="M56.2454 8.12713C56.2454 8.45453 56.1238 8.69621 55.8808 8.85241C55.6376 9.00851 55.3394 9.08661 54.986 9.08661C54.9216 9.08661 54.8758 9.08532 54.8484 9.08252C54.8484 9.34012 54.8558 9.6796 54.871 10.1015H54.2937C54.3115 9.7057 54.3204 9.23933 54.3204 8.70233C54.3204 8.20923 54.3114 7.78389 54.2937 7.42639H54.6512C54.7019 7.42639 54.7991 7.42442 54.9429 7.42022C55.0868 7.41612 55.2113 7.414 55.3169 7.414C55.577 7.414 55.7969 7.4728 55.9764 7.5907C56.1559 7.7086 56.2454 7.88743 56.2454 8.12713ZM55.7153 8.23999C55.7153 7.94699 55.5209 7.80041 55.1318 7.80041C55.0345 7.80041 54.9318 7.81073 54.8236 7.83123C54.8387 8.09013 54.8462 8.38311 54.8462 8.71051C54.8804 8.71331 54.9202 8.7146 54.9654 8.7146C55.4654 8.7146 55.7153 8.55639 55.7153 8.23999Z" fill="#FBFBFB"/>
<path d="M60.2743 8.7146C60.2743 9.1351 60.1456 9.48383 59.888 9.76043C59.6304 10.037 59.312 10.1754 58.9327 10.1754C58.5711 10.1754 58.2683 10.0484 58.0246 9.79419C57.7808 9.54019 57.6589 9.21722 57.6589 8.82562C57.6589 8.40512 57.7876 8.05638 58.0451 7.77978C58.3027 7.50318 58.6211 7.3648 59.0005 7.3648C59.3621 7.3648 59.6649 7.49143 59.9086 7.74493C60.1523 7.99843 60.2743 8.3215 60.2743 8.7146ZM59.7072 8.77423C59.7072 8.48793 59.634 8.25579 59.4874 8.07769C59.3408 7.89969 59.16 7.81061 58.945 7.81061C58.745 7.81061 58.5752 7.90033 58.4355 8.07983C58.2958 8.25923 58.226 8.48588 58.226 8.75988C58.226 9.04478 58.2995 9.27652 58.4469 9.45532C58.5941 9.63402 58.7745 9.72351 58.9882 9.72351C59.1883 9.72351 59.358 9.63348 59.4978 9.45318C59.6374 9.27308 59.7072 9.04673 59.7072 8.77423Z" fill="#FBFBFB"/>
<path d="M63.0594 10.1015H62.5518C62.5518 10.0453 62.3636 9.74881 61.9868 9.21191C61.5923 8.64621 61.3678 8.25928 61.313 8.05108H61.28C61.3142 8.35098 61.3314 8.62228 61.3314 8.86468C61.3314 9.20288 61.3409 9.6153 61.3601 10.1015H60.8547C60.8752 9.6769 60.8855 9.21063 60.8855 8.70233C60.8855 8.20233 60.8752 7.77699 60.8547 7.42639H61.4649C61.4649 7.49909 61.6342 7.78883 61.9723 8.29553C62.3326 8.83383 62.5394 9.19882 62.5928 9.39062H62.6236C62.5908 9.08522 62.5743 8.81118 62.5743 8.56878C62.5743 8.19768 62.5648 7.81681 62.5456 7.42651H63.0594C63.0401 7.76631 63.0305 8.19159 63.0305 8.70239C63.0305 9.21729 63.0401 9.6836 63.0594 10.1015Z" fill="#FBFBFB"/>
<defs>
<linearGradient id="paint0_linear_2_305" x1="12.4635" y1="7.0788" x2="12.4635" y2="28.7491" gradientUnits="userSpaceOnUse">
<stop stop-color="#316199"/>
<stop offset="0.2775" stop-color="#4D839D"/>
<stop offset="0.7642" stop-color="#7ABAA3"/>
<stop offset="1" stop-color="#8BD0A5"/>
</linearGradient>
<linearGradient id="paint1_linear_2_305" x1="7" y1="12.4571" x2="20.8623" y2="12.4571" gradientUnits="userSpaceOnUse">
<stop stop-color="#5DBC91"/>
<stop offset="1" stop-color="#DAEF7E"/>
</linearGradient>
<linearGradient id="paint2_linear_2_305" x1="13.9311" y1="17.9142" x2="13.9311" y2="28.828" gradientUnits="userSpaceOnUse">
<stop stop-color="#F91B1C"/>
<stop offset="0.3584" stop-color="#C71E49"/>
<stop offset="0.7905" stop-color="#90227A"/>
<stop offset="1" stop-color="#7A238D"/>
</linearGradient>
<linearGradient id="paint3_linear_2_305" x1="21.9154" y1="15.0038" x2="21.9154" y2="20.8242" gradientUnits="userSpaceOnUse">
<stop stop-color="#FA6C61"/>
<stop offset="0.1134" stop-color="#FB775F"/>
<stop offset="0.7108" stop-color="#FDAE58"/>
<stop offset="1" stop-color="#FEC455"/>
</linearGradient>
</defs>
</svg>
